<svg xmlns="http://www.w3.org/2000/svg" xmlns:xlink="http://www.w3.org/1999/xlink" width="500" zoomAndPan="magnify" viewBox="0 0 375 187.499995" height="250" preserveAspectRatio="xMidYMid meet" version="1.0"><defs><g/><clipPath id="a70344140e"><path d="M 0.5 0 L 374.5 0 L 374.5 187 L 0.5 187 Z M 0.5 0 " clip-rule="nonzero"/></clipPath><clipPath id="00bd709805"><rect x="0" width="100" y="0" height="78"/></clipPath><clipPath id="3fcedda4ef"><rect x="0" width="100" y="0" height="78"/></clipPath><clipPath id="5ecdf95bf6"><rect x="0" width="100" y="0" height="78"/></clipPath><clipPath id="51ca6b6e66"><rect x="0" width="136" y="0" height="117"/></clipPath><clipPath id="1658d06462"><rect x="0" width="354" y="0" height="23"/></clipPath><clipPath id="65070be50d"><rect x="0" width="75" y="0" height="93"/></clipPath><clipPath id="438479d61e"><rect x="0" width="47" y="0" height="93"/></clipPath><clipPath id="40c9d6638c"><path d="M 0.152344 30 L 43 30 L 43 75 L 0.152344 75 Z M 0.152344 30 " clip-rule="nonzero"/></clipPath><clipPath id="09bb586fa3"><rect x="0" width="49" y="0" height="93"/></clipPath></defs><g clip-path="url(#a70344140e)"><path fill="#ffffff" d="M 0.5 0 L 374.5 0 L 374.5 187 L 0.5 187 Z M 0.5 0 " fill-opacity="1" fill-rule="nonzero"/><path fill="#ffffff" d="M 0.5 0 L 374.5 0 L 374.5 187 L 0.5 187 Z M 0.5 0 " fill-opacity="1" fill-rule="nonzero"/></g><g transform="matrix(1, 0, 0, 1, 128, 17)"><g clip-path="url(#00bd709805)"><g fill="#0081cc" fill-opacity="1"><g transform="translate(4.078983, 57.186099)"><g><path d="M -2 -53.984375 L 94.109375 -53.984375 L 60.203125 3.453125 C 56.972656 -2.023438 53.753906 -7.40625 50.546875 -12.6875 C 47.347656 -17.96875 44.160156 -23.320312 40.984375 -28.75 L 39.296875 -27.140625 L 44.75 -17.921875 L 31.90625 3.453125 Z M -2 -53.984375 "/></g></g></g></g></g><g transform="matrix(1, 0, 0, 1, 135, 17)"><g clip-path="url(#3fcedda4ef)"><g fill="#004aad" fill-opacity="1"><g transform="translate(4.029, 57.191215)"><g><path d="M -2 -53.984375 L 94.109375 -53.984375 L 60.203125 3.453125 C 56.972656 -2.023438 53.753906 -7.40625 50.546875 -12.6875 C 47.347656 -17.96875 44.160156 -23.320312 40.984375 -28.75 L 39.296875 -27.140625 L 44.75 -17.921875 L 31.90625 3.453125 Z M -2 -53.984375 "/></g></g></g></g></g><g transform="matrix(1, 0, 0, 1, 142, 17)"><g clip-path="url(#5ecdf95bf6)"><g fill="#000000" fill-opacity="1"><g transform="translate(4.220282, 57.191215)"><g><path d="M -2 -53.984375 L 94.109375 -53.984375 L 60.203125 3.453125 C 56.972656 -2.023438 53.753906 -7.40625 50.546875 -12.6875 C 47.347656 -17.96875 44.160156 -23.320312 40.984375 -28.75 L 39.296875 -27.140625 L 44.75 -17.921875 L 31.90625 3.453125 Z M -2 -53.984375 "/></g></g></g></g></g><g transform="matrix(1, 0, 0, 1, 36, 61)"><g clip-path="url(#51ca6b6e66)"><g fill="#000000" fill-opacity="1"><g transform="translate(0.972906, 78.675033)"><g><path d="M 10.203125 0 C 8.878906 0 7.816406 -0.410156 7.015625 -1.234375 C 6.210938 -2.066406 5.8125 -3.148438 5.8125 -4.484375 L 5.8125 -55.265625 C 5.8125 -56.597656 6.210938 -57.675781 7.015625 -58.5 C 7.816406 -59.332031 8.878906 -59.75 10.203125 -59.75 L 23.65625 -59.75 C 27.914062 -59.75 31.648438 -58.890625 34.859375 -57.171875 C 38.066406 -55.460938 40.75 -53.207031 42.90625 -50.40625 C 45.0625 -47.613281 46.675781 -44.429688 47.75 -40.859375 C 48.832031 -37.296875 49.375 -33.632812 49.375 -29.875 C 49.375 -26.164062 48.832031 -22.515625 47.75 -18.921875 C 46.675781 -15.328125 45.0625 -12.128906 42.90625 -9.328125 C 40.75 -6.535156 38.066406 -4.28125 34.859375 -2.5625 C 31.648438 -0.851562 27.914062 0 23.65625 0 Z M 23.65625 -5.234375 C 26.96875 -5.234375 29.851562 -5.9375 32.3125 -7.34375 C 34.78125 -8.75 36.828125 -10.597656 38.453125 -12.890625 C 40.085938 -15.191406 41.320312 -17.820312 42.15625 -20.78125 C 42.988281 -23.75 43.40625 -26.78125 43.40625 -29.875 C 43.40625 -32.96875 42.988281 -35.976562 42.15625 -38.90625 C 41.320312 -41.84375 40.085938 -44.472656 38.453125 -46.796875 C 36.828125 -49.117188 34.78125 -50.984375 32.3125 -52.390625 C 29.851562 -53.804688 26.96875 -54.515625 23.65625 -54.515625 L 11.625 -54.515625 L 11.625 -5.234375 Z M 23.65625 -5.234375 "/></g></g></g><g fill="#000000" fill-opacity="1"><g transform="translate(53.250344, 78.675033)"><g><path d="M 36.015625 -7.890625 C 35.296875 -6.441406 34.378906 -5.191406 33.265625 -4.140625 C 32.160156 -3.097656 30.945312 -2.21875 29.625 -1.5 C 28.300781 -0.78125 26.890625 -0.253906 25.390625 0.078125 C 23.898438 0.410156 22.40625 0.578125 20.90625 0.578125 C 18.8125 0.578125 16.765625 0.25 14.765625 -0.40625 C 12.773438 -1.070312 10.988281 -2.097656 9.40625 -3.484375 C 7.832031 -4.867188 6.5625 -6.582031 5.59375 -8.625 C 4.632812 -10.675781 4.15625 -13.054688 4.15625 -15.765625 L 4.15625 -24.890625 C 4.15625 -27.765625 4.625 -30.265625 5.5625 -32.390625 C 6.5 -34.523438 7.726562 -36.3125 9.25 -37.75 C 10.769531 -39.195312 12.5 -40.28125 14.4375 -41 C 16.375 -41.71875 18.367188 -42.078125 20.421875 -42.078125 C 22.460938 -42.078125 24.460938 -41.71875 26.421875 -41 C 28.390625 -40.28125 30.132812 -39.195312 31.65625 -37.75 C 33.175781 -36.3125 34.40625 -34.523438 35.34375 -32.390625 C 36.289062 -30.265625 36.765625 -27.765625 36.765625 -24.890625 C 36.765625 -22.296875 36.113281 -20.429688 34.8125 -19.296875 C 33.507812 -18.160156 31.695312 -17.59375 29.375 -17.59375 L 9.953125 -17.59375 L 9.953125 -15.765625 C 9.953125 -13.941406 10.269531 -12.320312 10.90625 -10.90625 C 11.539062 -9.5 12.367188 -8.335938 13.390625 -7.421875 C 14.421875 -6.515625 15.585938 -5.820312 16.890625 -5.34375 C 18.191406 -4.875 19.53125 -4.640625 20.90625 -4.640625 C 23.007812 -4.640625 25 -5.179688 26.875 -6.265625 C 28.757812 -7.347656 30.144531 -8.96875 31.03125 -11.125 Z M 9.953125 -22.828125 L 28.96875 -22.828125 C 30.289062 -22.828125 30.953125 -23.515625 30.953125 -24.890625 C 30.953125 -26.878906 30.644531 -28.617188 30.03125 -30.109375 C 29.425781 -31.609375 28.625 -32.851562 27.625 -33.84375 C 26.632812 -34.84375 25.515625 -35.59375 24.265625 -36.09375 C 23.023438 -36.59375 21.742188 -36.84375 20.421875 -36.84375 C 19.085938 -36.84375 17.796875 -36.59375 16.546875 -36.09375 C 15.304688 -35.59375 14.203125 -34.84375 13.234375 -33.84375 C 12.265625 -32.851562 11.472656 -31.609375 10.859375 -30.109375 C 10.253906 -28.617188 9.953125 -26.878906 9.953125 -24.890625 Z M 9.953125 -22.828125 "/></g></g></g><g fill="#000000" fill-opacity="1"><g transform="translate(93.329714, 78.675033)"><g><path d="M 11.203125 18.25 L 5.390625 18.25 L 5.390625 -41.5 L 10.625 -41.5 L 11.203125 -36.59375 C 12.804688 -38.53125 14.585938 -39.925781 16.546875 -40.78125 C 18.515625 -41.644531 20.492188 -42.078125 22.484375 -42.078125 C 24.253906 -42.078125 25.984375 -41.726562 27.671875 -41.03125 C 29.359375 -40.34375 30.835938 -39.320312 32.109375 -37.96875 C 33.390625 -36.613281 34.414062 -34.96875 35.1875 -33.03125 C 35.957031 -31.09375 36.34375 -28.878906 36.34375 -26.390625 L 36.34375 -15.109375 C 36.34375 -12.617188 35.957031 -10.40625 35.1875 -8.46875 C 34.414062 -6.53125 33.390625 -4.882812 32.109375 -3.53125 C 30.835938 -2.175781 29.359375 -1.148438 27.671875 -0.453125 C 25.984375 0.234375 24.253906 0.578125 22.484375 0.578125 C 20.492188 0.578125 18.515625 0.148438 16.546875 -0.703125 C 14.585938 -1.554688 12.804688 -2.953125 11.203125 -4.890625 Z M 11.203125 -15.84375 C 11.203125 -14.019531 11.492188 -12.398438 12.078125 -10.984375 C 12.660156 -9.578125 13.421875 -8.40625 14.359375 -7.46875 C 15.296875 -6.53125 16.375 -5.820312 17.59375 -5.34375 C 18.8125 -4.875 20.03125 -4.640625 21.25 -4.640625 C 22.40625 -4.640625 23.550781 -4.847656 24.6875 -5.265625 C 25.820312 -5.679688 26.816406 -6.332031 27.671875 -7.21875 C 28.535156 -8.101562 29.226562 -9.195312 29.75 -10.5 C 30.269531 -11.800781 30.53125 -13.335938 30.53125 -15.109375 L 30.53125 -26.390625 C 30.53125 -28.160156 30.269531 -29.691406 29.75 -30.984375 C 29.226562 -32.285156 28.535156 -33.378906 27.671875 -34.265625 C 26.816406 -35.148438 25.820312 -35.800781 24.6875 -36.21875 C 23.550781 -36.632812 22.40625 -36.84375 21.25 -36.84375 C 20.03125 -36.84375 18.8125 -36.609375 17.59375 -36.140625 C 16.375 -35.671875 15.296875 -34.960938 14.359375 -34.015625 C 13.421875 -33.078125 12.660156 -31.898438 12.078125 -30.484375 C 11.492188 -29.078125 11.203125 -27.460938 11.203125 -25.640625 Z M 11.203125 -15.84375 "/></g></g></g></g></g><g transform="matrix(1, 0, 0, 1, 11, 158)"><g clip-path="url(#1658d06462)"><g fill="#000000" fill-opacity="1"><g transform="translate(0.879938, 14.224915)"><g><path d="M 2.171875 -11.203125 L 2.171875 -3.71875 C 2.171875 -3.238281 2.253906 -2.820312 2.421875 -2.46875 C 2.597656 -2.125 2.828125 -1.832031 3.109375 -1.59375 C 3.398438 -1.351562 3.726562 -1.171875 4.09375 -1.046875 C 4.457031 -0.929688 4.832031 -0.875 5.21875 -0.875 C 5.59375 -0.875 5.957031 -0.929688 6.3125 -1.046875 C 6.675781 -1.171875 7 -1.351562 7.28125 -1.59375 C 7.570312 -1.832031 7.804688 -2.125 7.984375 -2.46875 C 8.160156 -2.820312 8.25 -3.238281 8.25 -3.71875 L 8.25 -11.203125 L 9.34375 -11.203125 L 9.34375 -3.71875 C 9.34375 -3.070312 9.222656 -2.507812 8.984375 -2.03125 C 8.742188 -1.5625 8.429688 -1.164062 8.046875 -0.84375 C 7.660156 -0.519531 7.21875 -0.28125 6.71875 -0.125 C 6.226562 0.03125 5.726562 0.109375 5.21875 0.109375 C 4.695312 0.109375 4.1875 0.03125 3.6875 -0.125 C 3.195312 -0.28125 2.757812 -0.519531 2.375 -0.84375 C 1.988281 -1.164062 1.675781 -1.5625 1.4375 -2.03125 C 1.207031 -2.507812 1.09375 -3.070312 1.09375 -3.71875 L 1.09375 -11.203125 Z M 2.171875 -11.203125 "/></g></g></g><g fill="#000000" fill-opacity="1"><g transform="translate(11.304965, 14.224915)"><g><path d="M 5.421875 -6.609375 C 5.222656 -6.660156 4.9375 -6.722656 4.5625 -6.796875 C 4.195312 -6.867188 3.820312 -6.90625 3.4375 -6.90625 C 3.21875 -6.90625 3.003906 -6.890625 2.796875 -6.859375 C 2.597656 -6.828125 2.421875 -6.769531 2.265625 -6.6875 C 2.109375 -6.601562 1.984375 -6.488281 1.890625 -6.34375 C 1.796875 -6.207031 1.75 -6.039062 1.75 -5.84375 C 1.75 -5.625 1.789062 -5.4375 1.875 -5.28125 C 1.957031 -5.132812 2.078125 -5.007812 2.234375 -4.90625 C 2.390625 -4.800781 2.570312 -4.710938 2.78125 -4.640625 C 2.988281 -4.566406 3.207031 -4.5 3.4375 -4.4375 C 3.71875 -4.363281 4.003906 -4.273438 4.296875 -4.171875 C 4.585938 -4.066406 4.847656 -3.925781 5.078125 -3.75 C 5.316406 -3.582031 5.507812 -3.363281 5.65625 -3.09375 C 5.800781 -2.820312 5.875 -2.476562 5.875 -2.0625 C 5.875 -1.675781 5.800781 -1.34375 5.65625 -1.0625 C 5.519531 -0.789062 5.320312 -0.566406 5.0625 -0.390625 C 4.8125 -0.210938 4.515625 -0.0820312 4.171875 0 C 3.835938 0.0703125 3.476562 0.109375 3.09375 0.109375 C 2.65625 0.109375 2.207031 0.0625 1.75 -0.03125 C 1.300781 -0.125 0.859375 -0.253906 0.421875 -0.421875 L 0.609375 -1.40625 C 0.753906 -1.34375 0.921875 -1.28125 1.109375 -1.21875 C 1.304688 -1.15625 1.515625 -1.097656 1.734375 -1.046875 C 1.953125 -0.992188 2.179688 -0.953125 2.421875 -0.921875 C 2.660156 -0.890625 2.894531 -0.875 3.125 -0.875 C 3.351562 -0.875 3.566406 -0.890625 3.765625 -0.921875 C 3.972656 -0.960938 4.148438 -1.03125 4.296875 -1.125 C 4.453125 -1.21875 4.570312 -1.34375 4.65625 -1.5 C 4.75 -1.65625 4.796875 -1.84375 4.796875 -2.0625 C 4.796875 -2.269531 4.75 -2.441406 4.65625 -2.578125 C 4.5625 -2.722656 4.4375 -2.847656 4.28125 -2.953125 C 4.132812 -3.066406 3.960938 -3.160156 3.765625 -3.234375 C 3.566406 -3.304688 3.363281 -3.375 3.15625 -3.4375 C 2.863281 -3.519531 2.570312 -3.613281 2.28125 -3.71875 C 1.988281 -3.820312 1.71875 -3.957031 1.46875 -4.125 C 1.226562 -4.300781 1.03125 -4.523438 0.875 -4.796875 C 0.726562 -5.066406 0.65625 -5.414062 0.65625 -5.84375 C 0.65625 -6.226562 0.734375 -6.550781 0.890625 -6.8125 C 1.054688 -7.082031 1.269531 -7.296875 1.53125 -7.453125 C 1.789062 -7.609375 2.082031 -7.71875 2.40625 -7.78125 C 2.738281 -7.851562 3.082031 -7.890625 3.4375 -7.890625 C 3.820312 -7.890625 4.203125 -7.859375 4.578125 -7.796875 C 4.960938 -7.734375 5.304688 -7.660156 5.609375 -7.578125 Z M 5.421875 -6.609375 "/></g></g></g><g fill="#000000" fill-opacity="1"><g transform="translate(17.668895, 14.224915)"><g><path d="M 6.75 -1.484375 C 6.613281 -1.210938 6.441406 -0.976562 6.234375 -0.78125 C 6.023438 -0.582031 5.796875 -0.414062 5.546875 -0.28125 C 5.304688 -0.144531 5.046875 -0.046875 4.765625 0.015625 C 4.484375 0.078125 4.203125 0.109375 3.921875 0.109375 C 3.523438 0.109375 3.140625 0.046875 2.765625 -0.078125 C 2.390625 -0.203125 2.054688 -0.394531 1.765625 -0.65625 C 1.472656 -0.914062 1.234375 -1.234375 1.046875 -1.609375 C 0.867188 -1.992188 0.78125 -2.441406 0.78125 -2.953125 L 0.78125 -4.671875 C 0.78125 -5.210938 0.867188 -5.679688 1.046875 -6.078125 C 1.222656 -6.472656 1.453125 -6.804688 1.734375 -7.078125 C 2.015625 -7.347656 2.335938 -7.550781 2.703125 -7.6875 C 3.066406 -7.820312 3.441406 -7.890625 3.828125 -7.890625 C 4.210938 -7.890625 4.585938 -7.820312 4.953125 -7.6875 C 5.328125 -7.550781 5.65625 -7.347656 5.9375 -7.078125 C 6.21875 -6.804688 6.445312 -6.472656 6.625 -6.078125 C 6.800781 -5.679688 6.890625 -5.210938 6.890625 -4.671875 C 6.890625 -4.179688 6.765625 -3.828125 6.515625 -3.609375 C 6.273438 -3.398438 5.941406 -3.296875 5.515625 -3.296875 L 1.875 -3.296875 L 1.875 -2.953125 C 1.875 -2.609375 1.929688 -2.304688 2.046875 -2.046875 C 2.160156 -1.785156 2.3125 -1.566406 2.5 -1.390625 C 2.695312 -1.222656 2.914062 -1.09375 3.15625 -1 C 3.40625 -0.914062 3.660156 -0.875 3.921875 -0.875 C 4.316406 -0.875 4.691406 -0.972656 5.046875 -1.171875 C 5.398438 -1.378906 5.660156 -1.679688 5.828125 -2.078125 Z M 1.875 -4.28125 L 5.4375 -4.28125 C 5.6875 -4.28125 5.8125 -4.410156 5.8125 -4.671875 C 5.8125 -5.046875 5.753906 -5.367188 5.640625 -5.640625 C 5.523438 -5.921875 5.375 -6.15625 5.1875 -6.34375 C 5 -6.53125 4.785156 -6.671875 4.546875 -6.765625 C 4.316406 -6.859375 4.078125 -6.90625 3.828125 -6.90625 C 3.578125 -6.90625 3.332031 -6.859375 3.09375 -6.765625 C 2.863281 -6.671875 2.65625 -6.53125 2.46875 -6.34375 C 2.289062 -6.15625 2.144531 -5.921875 2.03125 -5.640625 C 1.925781 -5.367188 1.875 -5.046875 1.875 -4.671875 Z M 1.875 -4.28125 "/></g></g></g><g fill="#000000" fill-opacity="1"><g transform="translate(25.18425, 14.224915)"><g/></g></g><g fill="#000000" fill-opacity="1"><g transform="translate(30.163369, 14.224915)"><g><path d="M 5.578125 -0.921875 C 5.273438 -0.554688 4.9375 -0.289062 4.5625 -0.125 C 4.195312 0.03125 3.828125 0.109375 3.453125 0.109375 C 3.117188 0.109375 2.796875 0.046875 2.484375 -0.078125 C 2.171875 -0.210938 1.894531 -0.40625 1.65625 -0.65625 C 1.414062 -0.914062 1.222656 -1.222656 1.078125 -1.578125 C 0.929688 -1.941406 0.859375 -2.359375 0.859375 -2.828125 L 0.859375 -4.953125 C 0.859375 -5.421875 0.929688 -5.832031 1.078125 -6.1875 C 1.222656 -6.550781 1.414062 -6.859375 1.65625 -7.109375 C 1.894531 -7.367188 2.171875 -7.5625 2.484375 -7.6875 C 2.796875 -7.820312 3.117188 -7.890625 3.453125 -7.890625 C 3.828125 -7.890625 4.195312 -7.804688 4.5625 -7.640625 C 4.9375 -7.484375 5.273438 -7.222656 5.578125 -6.859375 L 5.578125 -11.671875 L 6.65625 -11.671875 L 6.65625 0 L 5.671875 0 Z M 5.578125 -4.8125 C 5.578125 -5.15625 5.519531 -5.457031 5.40625 -5.71875 C 5.300781 -5.976562 5.160156 -6.195312 4.984375 -6.375 C 4.804688 -6.550781 4.601562 -6.679688 4.375 -6.765625 C 4.15625 -6.859375 3.925781 -6.90625 3.6875 -6.90625 C 3.46875 -6.90625 3.25 -6.863281 3.03125 -6.78125 C 2.820312 -6.707031 2.632812 -6.585938 2.46875 -6.421875 C 2.3125 -6.253906 2.1875 -6.050781 2.09375 -5.8125 C 2 -5.570312 1.953125 -5.285156 1.953125 -4.953125 L 1.953125 -2.828125 C 1.953125 -2.492188 2 -2.207031 2.09375 -1.96875 C 2.1875 -1.726562 2.3125 -1.523438 2.46875 -1.359375 C 2.632812 -1.191406 2.820312 -1.066406 3.03125 -0.984375 C 3.25 -0.910156 3.46875 -0.875 3.6875 -0.875 C 3.925781 -0.875 4.15625 -0.914062 4.375 -1 C 4.601562 -1.09375 4.804688 -1.226562 4.984375 -1.40625 C 5.160156 -1.582031 5.300781 -1.800781 5.40625 -2.0625 C 5.519531 -2.320312 5.578125 -2.625 5.578125 -2.96875 Z M 5.578125 -4.8125 "/></g></g></g><g fill="#000000" fill-opacity="1"><g transform="translate(37.834325, 14.224915)"><g><path d="M 6.75 -1.484375 C 6.613281 -1.210938 6.441406 -0.976562 6.234375 -0.78125 C 6.023438 -0.582031 5.796875 -0.414062 5.546875 -0.28125 C 5.304688 -0.144531 5.046875 -0.046875 4.765625 0.015625 C 4.484375 0.078125 4.203125 0.109375 3.921875 0.109375 C 3.523438 0.109375 3.140625 0.046875 2.765625 -0.078125 C 2.390625 -0.203125 2.054688 -0.394531 1.765625 -0.65625 C 1.472656 -0.914062 1.234375 -1.234375 1.046875 -1.609375 C 0.867188 -1.992188 0.78125 -2.441406 0.78125 -2.953125 L 0.78125 -4.671875 C 0.78125 -5.210938 0.867188 -5.679688 1.046875 -6.078125 C 1.222656 -6.472656 1.453125 -6.804688 1.734375 -7.078125 C 2.015625 -7.347656 2.335938 -7.550781 2.703125 -7.6875 C 3.066406 -7.820312 3.441406 -7.890625 3.828125 -7.890625 C 4.210938 -7.890625 4.585938 -7.820312 4.953125 -7.6875 C 5.328125 -7.550781 5.65625 -7.347656 5.9375 -7.078125 C 6.21875 -6.804688 6.445312 -6.472656 6.625 -6.078125 C 6.800781 -5.679688 6.890625 -5.210938 6.890625 -4.671875 C 6.890625 -4.179688 6.765625 -3.828125 6.515625 -3.609375 C 6.273438 -3.398438 5.941406 -3.296875 5.515625 -3.296875 L 1.875 -3.296875 L 1.875 -2.953125 C 1.875 -2.609375 1.929688 -2.304688 2.046875 -2.046875 C 2.160156 -1.785156 2.3125 -1.566406 2.5 -1.390625 C 2.695312 -1.222656 2.914062 -1.09375 3.15625 -1 C 3.40625 -0.914062 3.660156 -0.875 3.921875 -0.875 C 4.316406 -0.875 4.691406 -0.972656 5.046875 -1.171875 C 5.398438 -1.378906 5.660156 -1.679688 5.828125 -2.078125 Z M 1.875 -4.28125 L 5.4375 -4.28125 C 5.6875 -4.28125 5.8125 -4.410156 5.8125 -4.671875 C 5.8125 -5.046875 5.753906 -5.367188 5.640625 -5.640625 C 5.523438 -5.921875 5.375 -6.15625 5.1875 -6.34375 C 5 -6.53125 4.785156 -6.671875 4.546875 -6.765625 C 4.316406 -6.859375 4.078125 -6.90625 3.828125 -6.90625 C 3.578125 -6.90625 3.332031 -6.859375 3.09375 -6.765625 C 2.863281 -6.671875 2.65625 -6.53125 2.46875 -6.34375 C 2.289062 -6.15625 2.144531 -5.921875 2.03125 -5.640625 C 1.925781 -5.367188 1.875 -5.046875 1.875 -4.671875 Z M 1.875 -4.28125 "/></g></g></g><g fill="#000000" fill-opacity="1"><g transform="translate(45.34968, 14.224915)"><g><path d="M 2.09375 3.421875 L 1.015625 3.421875 L 1.015625 -7.78125 L 1.984375 -7.78125 L 2.09375 -6.859375 C 2.394531 -7.222656 2.726562 -7.484375 3.09375 -7.640625 C 3.46875 -7.804688 3.84375 -7.890625 4.21875 -7.890625 C 4.550781 -7.890625 4.875 -7.820312 5.1875 -7.6875 C 5.507812 -7.5625 5.785156 -7.367188 6.015625 -7.109375 C 6.253906 -6.859375 6.445312 -6.550781 6.59375 -6.1875 C 6.738281 -5.832031 6.8125 -5.421875 6.8125 -4.953125 L 6.8125 -2.828125 C 6.8125 -2.359375 6.738281 -1.941406 6.59375 -1.578125 C 6.445312 -1.222656 6.253906 -0.914062 6.015625 -0.65625 C 5.785156 -0.40625 5.507812 -0.210938 5.1875 -0.078125 C 4.875 0.046875 4.550781 0.109375 4.21875 0.109375 C 3.84375 0.109375 3.46875 0.03125 3.09375 -0.125 C 2.726562 -0.289062 2.394531 -0.554688 2.09375 -0.921875 Z M 2.09375 -2.96875 C 2.09375 -2.625 2.144531 -2.320312 2.25 -2.0625 C 2.363281 -1.800781 2.507812 -1.582031 2.6875 -1.40625 C 2.863281 -1.226562 3.066406 -1.09375 3.296875 -1 C 3.523438 -0.914062 3.753906 -0.875 3.984375 -0.875 C 4.203125 -0.875 4.414062 -0.910156 4.625 -0.984375 C 4.84375 -1.066406 5.03125 -1.191406 5.1875 -1.359375 C 5.351562 -1.523438 5.484375 -1.726562 5.578125 -1.96875 C 5.679688 -2.207031 5.734375 -2.492188 5.734375 -2.828125 L 5.734375 -4.953125 C 5.734375 -5.285156 5.679688 -5.570312 5.578125 -5.8125 C 5.484375 -6.050781 5.351562 -6.253906 5.1875 -6.421875 C 5.03125 -6.585938 4.84375 -6.707031 4.625 -6.78125 C 4.414062 -6.863281 4.203125 -6.90625 3.984375 -6.90625 C 3.753906 -6.90625 3.523438 -6.859375 3.296875 -6.765625 C 3.066406 -6.679688 2.863281 -6.550781 2.6875 -6.375 C 2.507812 -6.195312 2.363281 -5.976562 2.25 -5.71875 C 2.144531 -5.457031 2.09375 -5.15625 2.09375 -4.8125 Z M 2.09375 -2.96875 "/></g></g></g><g fill="#000000" fill-opacity="1"><g transform="translate(53.020635, 14.224915)"><g><path d="M 6.75 -1.484375 C 6.613281 -1.210938 6.441406 -0.976562 6.234375 -0.78125 C 6.023438 -0.582031 5.796875 -0.414062 5.546875 -0.28125 C 5.304688 -0.144531 5.046875 -0.046875 4.765625 0.015625 C 4.484375 0.078125 4.203125 0.109375 3.921875 0.109375 C 3.523438 0.109375 3.140625 0.046875 2.765625 -0.078125 C 2.390625 -0.203125 2.054688 -0.394531 1.765625 -0.65625 C 1.472656 -0.914062 1.234375 -1.234375 1.046875 -1.609375 C 0.867188 -1.992188 0.78125 -2.441406 0.78125 -2.953125 L 0.78125 -4.671875 C 0.78125 -5.210938 0.867188 -5.679688 1.046875 -6.078125 C 1.222656 -6.472656 1.453125 -6.804688 1.734375 -7.078125 C 2.015625 -7.347656 2.335938 -7.550781 2.703125 -7.6875 C 3.066406 -7.820312 3.441406 -7.890625 3.828125 -7.890625 C 4.210938 -7.890625 4.585938 -7.820312 4.953125 -7.6875 C 5.328125 -7.550781 5.65625 -7.347656 5.9375 -7.078125 C 6.21875 -6.804688 6.445312 -6.472656 6.625 -6.078125 C 6.800781 -5.679688 6.890625 -5.210938 6.890625 -4.671875 C 6.890625 -4.179688 6.765625 -3.828125 6.515625 -3.609375 C 6.273438 -3.398438 5.941406 -3.296875 5.515625 -3.296875 L 1.875 -3.296875 L 1.875 -2.953125 C 1.875 -2.609375 1.929688 -2.304688 2.046875 -2.046875 C 2.160156 -1.785156 2.3125 -1.566406 2.5 -1.390625 C 2.695312 -1.222656 2.914062 -1.09375 3.15625 -1 C 3.40625 -0.914062 3.660156 -0.875 3.921875 -0.875 C 4.316406 -0.875 4.691406 -0.972656 5.046875 -1.171875 C 5.398438 -1.378906 5.660156 -1.679688 5.828125 -2.078125 Z M 1.875 -4.28125 L 5.4375 -4.28125 C 5.6875 -4.28125 5.8125 -4.410156 5.8125 -4.671875 C 5.8125 -5.046875 5.753906 -5.367188 5.640625 -5.640625 C 5.523438 -5.921875 5.375 -6.15625 5.1875 -6.34375 C 5 -6.53125 4.785156 -6.671875 4.546875 -6.765625 C 4.316406 -6.859375 4.078125 -6.90625 3.828125 -6.90625 C 3.578125 -6.90625 3.332031 -6.859375 3.09375 -6.765625 C 2.863281 -6.671875 2.65625 -6.53125 2.46875 -6.34375 C 2.289062 -6.15625 2.144531 -5.921875 2.03125 -5.640625 C 1.925781 -5.367188 1.875 -5.046875 1.875 -4.671875 Z M 1.875 -4.28125 "/></g></g></g><g fill="#000000" fill-opacity="1"><g transform="translate(60.53599, 14.224915)"><g><path d="M 1.015625 0 L 1.015625 -7.78125 L 1.96875 -7.78125 L 2.09375 -6.703125 C 2.382812 -7.117188 2.722656 -7.421875 3.109375 -7.609375 C 3.503906 -7.796875 3.90625 -7.890625 4.3125 -7.890625 C 4.632812 -7.890625 4.945312 -7.828125 5.25 -7.703125 C 5.550781 -7.578125 5.816406 -7.394531 6.046875 -7.15625 C 6.273438 -6.925781 6.457031 -6.640625 6.59375 -6.296875 C 6.738281 -5.953125 6.8125 -5.554688 6.8125 -5.109375 L 6.8125 0 L 5.734375 0 L 5.734375 -5.109375 C 5.734375 -5.421875 5.6875 -5.6875 5.59375 -5.90625 C 5.507812 -6.132812 5.394531 -6.320312 5.25 -6.46875 C 5.101562 -6.613281 4.9375 -6.722656 4.75 -6.796875 C 4.5625 -6.867188 4.363281 -6.90625 4.15625 -6.90625 C 3.90625 -6.90625 3.65625 -6.851562 3.40625 -6.75 C 3.164062 -6.65625 2.945312 -6.515625 2.75 -6.328125 C 2.5625 -6.148438 2.40625 -5.929688 2.28125 -5.671875 C 2.15625 -5.410156 2.09375 -5.109375 2.09375 -4.765625 L 2.09375 0 Z M 1.015625 0 "/></g></g></g><g fill="#000000" fill-opacity="1"><g transform="translate(68.362547, 14.224915)"><g><path d="M 5.578125 -0.921875 C 5.273438 -0.554688 4.9375 -0.289062 4.5625 -0.125 C 4.195312 0.03125 3.828125 0.109375 3.453125 0.109375 C 3.117188 0.109375 2.796875 0.046875 2.484375 -0.078125 C 2.171875 -0.210938 1.894531 -0.40625 1.65625 -0.65625 C 1.414062 -0.914062 1.222656 -1.222656 1.078125 -1.578125 C 0.929688 -1.941406 0.859375 -2.359375 0.859375 -2.828125 L 0.859375 -4.953125 C 0.859375 -5.421875 0.929688 -5.832031 1.078125 -6.1875 C 1.222656 -6.550781 1.414062 -6.859375 1.65625 -7.109375 C 1.894531 -7.367188 2.171875 -7.5625 2.484375 -7.6875 C 2.796875 -7.820312 3.117188 -7.890625 3.453125 -7.890625 C 3.828125 -7.890625 4.195312 -7.804688 4.5625 -7.640625 C 4.9375 -7.484375 5.273438 -7.222656 5.578125 -6.859375 L 5.578125 -11.671875 L 6.65625 -11.671875 L 6.65625 0 L 5.671875 0 Z M 5.578125 -4.8125 C 5.578125 -5.15625 5.519531 -5.457031 5.40625 -5.71875 C 5.300781 -5.976562 5.160156 -6.195312 4.984375 -6.375 C 4.804688 -6.550781 4.601562 -6.679688 4.375 -6.765625 C 4.15625 -6.859375 3.925781 -6.90625 3.6875 -6.90625 C 3.46875 -6.90625 3.25 -6.863281 3.03125 -6.78125 C 2.820312 -6.707031 2.632812 -6.585938 2.46875 -6.421875 C 2.3125 -6.253906 2.1875 -6.050781 2.09375 -5.8125 C 2 -5.570312 1.953125 -5.285156 1.953125 -4.953125 L 1.953125 -2.828125 C 1.953125 -2.492188 2 -2.207031 2.09375 -1.96875 C 2.1875 -1.726562 2.3125 -1.523438 2.46875 -1.359375 C 2.632812 -1.191406 2.820312 -1.066406 3.03125 -0.984375 C 3.25 -0.910156 3.46875 -0.875 3.6875 -0.875 C 3.925781 -0.875 4.15625 -0.914062 4.375 -1 C 4.601562 -1.09375 4.804688 -1.226562 4.984375 -1.40625 C 5.160156 -1.582031 5.300781 -1.800781 5.40625 -2.0625 C 5.519531 -2.320312 5.578125 -2.625 5.578125 -2.96875 Z M 5.578125 -4.8125 "/></g></g></g><g fill="#000000" fill-opacity="1"><g transform="translate(76.033502, 14.224915)"><g><path d="M 6.75 -1.484375 C 6.613281 -1.210938 6.441406 -0.976562 6.234375 -0.78125 C 6.023438 -0.582031 5.796875 -0.414062 5.546875 -0.28125 C 5.304688 -0.144531 5.046875 -0.046875 4.765625 0.015625 C 4.484375 0.078125 4.203125 0.109375 3.921875 0.109375 C 3.523438 0.109375 3.140625 0.046875 2.765625 -0.078125 C 2.390625 -0.203125 2.054688 -0.394531 1.765625 -0.65625 C 1.472656 -0.914062 1.234375 -1.234375 1.046875 -1.609375 C 0.867188 -1.992188 0.78125 -2.441406 0.78125 -2.953125 L 0.78125 -4.671875 C 0.78125 -5.210938 0.867188 -5.679688 1.046875 -6.078125 C 1.222656 -6.472656 1.453125 -6.804688 1.734375 -7.078125 C 2.015625 -7.347656 2.335938 -7.550781 2.703125 -7.6875 C 3.066406 -7.820312 3.441406 -7.890625 3.828125 -7.890625 C 4.210938 -7.890625 4.585938 -7.820312 4.953125 -7.6875 C 5.328125 -7.550781 5.65625 -7.347656 5.9375 -7.078125 C 6.21875 -6.804688 6.445312 -6.472656 6.625 -6.078125 C 6.800781 -5.679688 6.890625 -5.210938 6.890625 -4.671875 C 6.890625 -4.179688 6.765625 -3.828125 6.515625 -3.609375 C 6.273438 -3.398438 5.941406 -3.296875 5.515625 -3.296875 L 1.875 -3.296875 L 1.875 -2.953125 C 1.875 -2.609375 1.929688 -2.304688 2.046875 -2.046875 C 2.160156 -1.785156 2.3125 -1.566406 2.5 -1.390625 C 2.695312 -1.222656 2.914062 -1.09375 3.15625 -1 C 3.40625 -0.914062 3.660156 -0.875 3.921875 -0.875 C 4.316406 -0.875 4.691406 -0.972656 5.046875 -1.171875 C 5.398438 -1.378906 5.660156 -1.679688 5.828125 -2.078125 Z M 1.875 -4.28125 L 5.4375 -4.28125 C 5.6875 -4.28125 5.8125 -4.410156 5.8125 -4.671875 C 5.8125 -5.046875 5.753906 -5.367188 5.640625 -5.640625 C 5.523438 -5.921875 5.375 -6.15625 5.1875 -6.34375 C 5 -6.53125 4.785156 -6.671875 4.546875 -6.765625 C 4.316406 -6.859375 4.078125 -6.90625 3.828125 -6.90625 C 3.578125 -6.90625 3.332031 -6.859375 3.09375 -6.765625 C 2.863281 -6.671875 2.65625 -6.53125 2.46875 -6.34375 C 2.289062 -6.15625 2.144531 -5.921875 2.03125 -5.640625 C 1.925781 -5.367188 1.875 -5.046875 1.875 -4.671875 Z M 1.875 -4.28125 "/></g></g></g><g fill="#000000" fill-opacity="1"><g transform="translate(83.548857, 14.224915)"><g><path d="M 1.015625 0 L 1.015625 -7.78125 L 1.96875 -7.78125 L 2.09375 -6.703125 C 2.382812 -7.117188 2.722656 -7.421875 3.109375 -7.609375 C 3.503906 -7.796875 3.90625 -7.890625 4.3125 -7.890625 C 4.632812 -7.890625 4.945312 -7.828125 5.25 -7.703125 C 5.550781 -7.578125 5.816406 -7.394531 6.046875 -7.15625 C 6.273438 -6.925781 6.457031 -6.640625 6.59375 -6.296875 C 6.738281 -5.953125 6.8125 -5.554688 6.8125 -5.109375 L 6.8125 0 L 5.734375 0 L 5.734375 -5.109375 C 5.734375 -5.421875 5.6875 -5.6875 5.59375 -5.90625 C 5.507812 -6.132812 5.394531 -6.320312 5.25 -6.46875 C 5.101562 -6.613281 4.9375 -6.722656 4.75 -6.796875 C 4.5625 -6.867188 4.363281 -6.90625 4.15625 -6.90625 C 3.90625 -6.90625 3.65625 -6.851562 3.40625 -6.75 C 3.164062 -6.65625 2.945312 -6.515625 2.75 -6.328125 C 2.5625 -6.148438 2.40625 -5.929688 2.28125 -5.671875 C 2.15625 -5.410156 2.09375 -5.109375 2.09375 -4.765625 L 2.09375 0 Z M 1.015625 0 "/></g></g></g><g fill="#000000" fill-opacity="1"><g transform="translate(91.375414, 14.224915)"><g><path d="M 6.75 -1.84375 C 6.632812 -1.519531 6.476562 -1.234375 6.28125 -0.984375 C 6.082031 -0.742188 5.851562 -0.539062 5.59375 -0.375 C 5.34375 -0.21875 5.066406 -0.0976562 4.765625 -0.015625 C 4.472656 0.0664062 4.171875 0.109375 3.859375 0.109375 C 3.472656 0.109375 3.09375 0.046875 2.71875 -0.078125 C 2.351562 -0.210938 2.023438 -0.40625 1.734375 -0.65625 C 1.453125 -0.914062 1.222656 -1.234375 1.046875 -1.609375 C 0.867188 -1.992188 0.78125 -2.441406 0.78125 -2.953125 L 0.78125 -4.828125 C 0.78125 -5.335938 0.867188 -5.78125 1.046875 -6.15625 C 1.222656 -6.539062 1.453125 -6.859375 1.734375 -7.109375 C 2.023438 -7.367188 2.351562 -7.5625 2.71875 -7.6875 C 3.09375 -7.820312 3.472656 -7.890625 3.859375 -7.890625 C 4.160156 -7.890625 4.453125 -7.847656 4.734375 -7.765625 C 5.023438 -7.691406 5.289062 -7.578125 5.53125 -7.421875 C 5.78125 -7.273438 6.003906 -7.085938 6.203125 -6.859375 C 6.398438 -6.640625 6.5625 -6.378906 6.6875 -6.078125 L 5.734375 -5.53125 C 5.585938 -5.988281 5.332031 -6.332031 4.96875 -6.5625 C 4.613281 -6.789062 4.234375 -6.90625 3.828125 -6.90625 C 3.578125 -6.90625 3.332031 -6.859375 3.09375 -6.765625 C 2.863281 -6.679688 2.65625 -6.550781 2.46875 -6.375 C 2.289062 -6.207031 2.144531 -5.992188 2.03125 -5.734375 C 1.925781 -5.472656 1.875 -5.171875 1.875 -4.828125 L 1.875 -2.953125 C 1.875 -2.609375 1.925781 -2.304688 2.03125 -2.046875 C 2.144531 -1.785156 2.289062 -1.566406 2.46875 -1.390625 C 2.65625 -1.222656 2.863281 -1.09375 3.09375 -1 C 3.332031 -0.914062 3.578125 -0.875 3.828125 -0.875 C 4.234375 -0.875 4.617188 -0.992188 4.984375 -1.234375 C 5.347656 -1.472656 5.601562 -1.832031 5.75 -2.3125 Z M 6.75 -1.84375 "/></g></g></g><g fill="#000000" fill-opacity="1"><g transform="translate(98.532899, 14.224915)"><g><path d="M 6.8125 0.6875 C 6.8125 1.15625 6.722656 1.5625 6.546875 1.90625 C 6.367188 2.257812 6.132812 2.554688 5.84375 2.796875 C 5.5625 3.046875 5.226562 3.226562 4.84375 3.34375 C 4.46875 3.46875 4.082031 3.53125 3.6875 3.53125 C 3.195312 3.53125 2.722656 3.4375 2.265625 3.25 C 1.804688 3.070312 1.40625 2.789062 1.0625 2.40625 L 1.71875 1.671875 C 1.945312 1.953125 2.238281 2.164062 2.59375 2.3125 C 2.957031 2.46875 3.328125 2.546875 3.703125 2.546875 C 3.960938 2.546875 4.210938 2.507812 4.453125 2.4375 C 4.703125 2.363281 4.921875 2.25 5.109375 2.09375 C 5.296875 1.945312 5.445312 1.753906 5.5625 1.515625 C 5.675781 1.285156 5.734375 1.007812 5.734375 0.6875 L 5.734375 -1 C 5.398438 -0.625 5.046875 -0.34375 4.671875 -0.15625 C 4.296875 0.0195312 3.90625 0.109375 3.5 0.109375 C 3.175781 0.109375 2.863281 0.0507812 2.5625 -0.0625 C 2.257812 -0.1875 1.992188 -0.363281 1.765625 -0.59375 C 1.535156 -0.820312 1.351562 -1.101562 1.21875 -1.4375 C 1.082031 -1.78125 1.015625 -2.171875 1.015625 -2.609375 L 1.015625 -7.78125 L 2.09375 -7.78125 L 2.09375 -2.609375 C 2.09375 -2.015625 2.25 -1.578125 2.5625 -1.296875 C 2.875 -1.015625 3.234375 -0.875 3.640625 -0.875 C 3.890625 -0.875 4.140625 -0.921875 4.390625 -1.015625 C 4.640625 -1.117188 4.863281 -1.265625 5.0625 -1.453125 C 5.257812 -1.640625 5.421875 -1.859375 5.546875 -2.109375 C 5.671875 -2.367188 5.734375 -2.660156 5.734375 -2.984375 L 5.734375 -7.78125 L 6.8125 -7.78125 Z M 6.8125 0.6875 "/></g></g></g><g fill="#000000" fill-opacity="1"><g transform="translate(106.359455, 14.224915)"><g/></g></g><g fill="#000000" fill-opacity="1"><g transform="translate(111.338575, 14.224915)"><g><path d="M 0.75 -10.5 C 0.75 -10.726562 0.828125 -10.921875 0.984375 -11.078125 C 1.140625 -11.234375 1.332031 -11.3125 1.5625 -11.3125 C 1.789062 -11.3125 1.976562 -11.234375 2.125 -11.078125 C 2.28125 -10.921875 2.359375 -10.726562 2.359375 -10.5 C 2.359375 -10.269531 2.28125 -10.078125 2.125 -9.921875 C 1.976562 -9.773438 1.789062 -9.703125 1.5625 -9.703125 C 1.332031 -9.703125 1.140625 -9.773438 0.984375 -9.921875 C 0.828125 -10.078125 0.75 -10.269531 0.75 -10.5 Z M 1.015625 0 L 1.015625 -7.78125 L 2.09375 -7.78125 L 2.09375 0 Z M 1.015625 0 "/></g></g></g><g fill="#000000" fill-opacity="1"><g transform="translate(114.45053, 14.224915)"><g><path d="M 1.015625 0 L 1.015625 -7.78125 L 1.96875 -7.78125 L 2.09375 -6.703125 C 2.382812 -7.117188 2.722656 -7.421875 3.109375 -7.609375 C 3.503906 -7.796875 3.90625 -7.890625 4.3125 -7.890625 C 4.632812 -7.890625 4.945312 -7.828125 5.25 -7.703125 C 5.550781 -7.578125 5.816406 -7.394531 6.046875 -7.15625 C 6.273438 -6.925781 6.457031 -6.640625 6.59375 -6.296875 C 6.738281 -5.953125 6.8125 -5.554688 6.8125 -5.109375 L 6.8125 0 L 5.734375 0 L 5.734375 -5.109375 C 5.734375 -5.421875 5.6875 -5.6875 5.59375 -5.90625 C 5.507812 -6.132812 5.394531 -6.320312 5.25 -6.46875 C 5.101562 -6.613281 4.9375 -6.722656 4.75 -6.796875 C 4.5625 -6.867188 4.363281 -6.90625 4.15625 -6.90625 C 3.90625 -6.90625 3.65625 -6.851562 3.40625 -6.75 C 3.164062 -6.65625 2.945312 -6.515625 2.75 -6.328125 C 2.5625 -6.148438 2.40625 -5.929688 2.28125 -5.671875 C 2.15625 -5.410156 2.09375 -5.109375 2.09375 -4.765625 L 2.09375 0 Z M 1.015625 0 "/></g></g></g><g fill="#000000" fill-opacity="1"><g transform="translate(122.277086, 14.224915)"><g><path d="M 0.90625 -10.5 C 0.90625 -10.726562 0.984375 -10.921875 1.140625 -11.078125 C 1.296875 -11.234375 1.488281 -11.3125 1.71875 -11.3125 C 1.9375 -11.3125 2.125 -11.234375 2.28125 -11.078125 C 2.4375 -10.921875 2.515625 -10.726562 2.515625 -10.5 C 2.515625 -10.269531 2.4375 -10.078125 2.28125 -9.921875 C 2.125 -9.773438 1.9375 -9.703125 1.71875 -9.703125 C 1.488281 -9.703125 1.296875 -9.773438 1.140625 -9.921875 C 0.984375 -10.078125 0.90625 -10.269531 0.90625 -10.5 Z M 2.25 -7.78125 L 2.25 0.46875 C 2.25 1.457031 2.050781 2.210938 1.65625 2.734375 C 1.257812 3.265625 0.695312 3.53125 -0.03125 3.53125 C -0.382812 3.53125 -0.75 3.476562 -1.125 3.375 L -0.984375 2.390625 C -0.640625 2.492188 -0.328125 2.546875 -0.046875 2.546875 C 0.359375 2.546875 0.660156 2.390625 0.859375 2.078125 C 1.066406 1.773438 1.171875 1.238281 1.171875 0.46875 L 1.171875 -7.78125 Z M 2.25 -7.78125 "/></g></g></g><g fill="#000000" fill-opacity="1"><g transform="translate(125.544627, 14.224915)"><g><path d="M 6.75 -1.484375 C 6.613281 -1.210938 6.441406 -0.976562 6.234375 -0.78125 C 6.023438 -0.582031 5.796875 -0.414062 5.546875 -0.28125 C 5.304688 -0.144531 5.046875 -0.046875 4.765625 0.015625 C 4.484375 0.078125 4.203125 0.109375 3.921875 0.109375 C 3.523438 0.109375 3.140625 0.046875 2.765625 -0.078125 C 2.390625 -0.203125 2.054688 -0.394531 1.765625 -0.65625 C 1.472656 -0.914062 1.234375 -1.234375 1.046875 -1.609375 C 0.867188 -1.992188 0.78125 -2.441406 0.78125 -2.953125 L 0.78125 -4.671875 C 0.78125 -5.210938 0.867188 -5.679688 1.046875 -6.078125 C 1.222656 -6.472656 1.453125 -6.804688 1.734375 -7.078125 C 2.015625 -7.347656 2.335938 -7.550781 2.703125 -7.6875 C 3.066406 -7.820312 3.441406 -7.890625 3.828125 -7.890625 C 4.210938 -7.890625 4.585938 -7.820312 4.953125 -7.6875 C 5.328125 -7.550781 5.65625 -7.347656 5.9375 -7.078125 C 6.21875 -6.804688 6.445312 -6.472656 6.625 -6.078125 C 6.800781 -5.679688 6.890625 -5.210938 6.890625 -4.671875 C 6.890625 -4.179688 6.765625 -3.828125 6.515625 -3.609375 C 6.273438 -3.398438 5.941406 -3.296875 5.515625 -3.296875 L 1.875 -3.296875 L 1.875 -2.953125 C 1.875 -2.609375 1.929688 -2.304688 2.046875 -2.046875 C 2.160156 -1.785156 2.3125 -1.566406 2.5 -1.390625 C 2.695312 -1.222656 2.914062 -1.09375 3.15625 -1 C 3.40625 -0.914062 3.660156 -0.875 3.921875 -0.875 C 4.316406 -0.875 4.691406 -0.972656 5.046875 -1.171875 C 5.398438 -1.378906 5.660156 -1.679688 5.828125 -2.078125 Z M 1.875 -4.28125 L 5.4375 -4.28125 C 5.6875 -4.28125 5.8125 -4.410156 5.8125 -4.671875 C 5.8125 -5.046875 5.753906 -5.367188 5.640625 -5.640625 C 5.523438 -5.921875 5.375 -6.15625 5.1875 -6.34375 C 5 -6.53125 4.785156 -6.671875 4.546875 -6.765625 C 4.316406 -6.859375 4.078125 -6.90625 3.828125 -6.90625 C 3.578125 -6.90625 3.332031 -6.859375 3.09375 -6.765625 C 2.863281 -6.671875 2.65625 -6.53125 2.46875 -6.34375 C 2.289062 -6.15625 2.144531 -5.921875 2.03125 -5.640625 C 1.925781 -5.367188 1.875 -5.046875 1.875 -4.671875 Z M 1.875 -4.28125 "/></g></g></g><g fill="#000000" fill-opacity="1"><g transform="translate(133.059982, 14.224915)"><g><path d="M 6.75 -1.84375 C 6.632812 -1.519531 6.476562 -1.234375 6.28125 -0.984375 C 6.082031 -0.742188 5.851562 -0.539062 5.59375 -0.375 C 5.34375 -0.21875 5.066406 -0.0976562 4.765625 -0.015625 C 4.472656 0.0664062 4.171875 0.109375 3.859375 0.109375 C 3.472656 0.109375 3.09375 0.046875 2.71875 -0.078125 C 2.351562 -0.210938 2.023438 -0.40625 1.734375 -0.65625 C 1.453125 -0.914062 1.222656 -1.234375 1.046875 -1.609375 C 0.867188 -1.992188 0.78125 -2.441406 0.78125 -2.953125 L 0.78125 -4.828125 C 0.78125 -5.335938 0.867188 -5.78125 1.046875 -6.15625 C 1.222656 -6.539062 1.453125 -6.859375 1.734375 -7.109375 C 2.023438 -7.367188 2.351562 -7.5625 2.71875 -7.6875 C 3.09375 -7.820312 3.472656 -7.890625 3.859375 -7.890625 C 4.160156 -7.890625 4.453125 -7.847656 4.734375 -7.765625 C 5.023438 -7.691406 5.289062 -7.578125 5.53125 -7.421875 C 5.78125 -7.273438 6.003906 -7.085938 6.203125 -6.859375 C 6.398438 -6.640625 6.5625 -6.378906 6.6875 -6.078125 L 5.734375 -5.53125 C 5.585938 -5.988281 5.332031 -6.332031 4.96875 -6.5625 C 4.613281 -6.789062 4.234375 -6.90625 3.828125 -6.90625 C 3.578125 -6.90625 3.332031 -6.859375 3.09375 -6.765625 C 2.863281 -6.679688 2.65625 -6.550781 2.46875 -6.375 C 2.289062 -6.207031 2.144531 -5.992188 2.03125 -5.734375 C 1.925781 -5.472656 1.875 -5.171875 1.875 -4.828125 L 1.875 -2.953125 C 1.875 -2.609375 1.925781 -2.304688 2.03125 -2.046875 C 2.144531 -1.785156 2.289062 -1.566406 2.46875 -1.390625 C 2.65625 -1.222656 2.863281 -1.09375 3.09375 -1 C 3.332031 -0.914062 3.578125 -0.875 3.828125 -0.875 C 4.234375 -0.875 4.617188 -0.992188 4.984375 -1.234375 C 5.347656 -1.472656 5.601562 -1.832031 5.75 -2.3125 Z M 6.75 -1.84375 "/></g></g></g><g fill="#000000" fill-opacity="1"><g transform="translate(140.217467, 14.224915)"><g><path d="M 4.4375 -0.140625 C 4.039062 0.0234375 3.648438 0.109375 3.265625 0.109375 C 3.023438 0.109375 2.796875 0.0703125 2.578125 0 C 2.359375 -0.0820312 2.171875 -0.207031 2.015625 -0.375 C 1.859375 -0.539062 1.726562 -0.757812 1.625 -1.03125 C 1.53125 -1.300781 1.484375 -1.625 1.484375 -2 L 1.484375 -6.796875 L 0.3125 -6.796875 L 0.3125 -7.78125 L 1.484375 -7.78125 L 1.484375 -9.796875 L 2.5625 -10.109375 L 2.5625 -7.78125 L 4.4375 -7.78125 L 4.4375 -6.796875 L 2.5625 -6.796875 L 2.5625 -2 C 2.5625 -1.59375 2.644531 -1.300781 2.8125 -1.125 C 2.976562 -0.957031 3.191406 -0.875 3.453125 -0.875 C 3.722656 -0.875 4.050781 -0.957031 4.4375 -1.125 Z M 4.4375 -0.140625 "/></g></g></g><g fill="#000000" fill-opacity="1"><g transform="translate(144.963186, 14.224915)"><g><path d="M 0.75 -10.5 C 0.75 -10.726562 0.828125 -10.921875 0.984375 -11.078125 C 1.140625 -11.234375 1.332031 -11.3125 1.5625 -11.3125 C 1.789062 -11.3125 1.976562 -11.234375 2.125 -11.078125 C 2.28125 -10.921875 2.359375 -10.726562 2.359375 -10.5 C 2.359375 -10.269531 2.28125 -10.078125 2.125 -9.921875 C 1.976562 -9.773438 1.789062 -9.703125 1.5625 -9.703125 C 1.332031 -9.703125 1.140625 -9.773438 0.984375 -9.921875 C 0.828125 -10.078125 0.75 -10.269531 0.75 -10.5 Z M 1.015625 0 L 1.015625 -7.78125 L 2.09375 -7.78125 L 2.09375 0 Z M 1.015625 0 "/></g></g></g><g fill="#000000" fill-opacity="1"><g transform="translate(148.075141, 14.224915)"><g><path d="M 0.78125 -4.828125 C 0.78125 -5.335938 0.867188 -5.78125 1.046875 -6.15625 C 1.234375 -6.539062 1.472656 -6.859375 1.765625 -7.109375 C 2.066406 -7.367188 2.410156 -7.5625 2.796875 -7.6875 C 3.179688 -7.820312 3.578125 -7.890625 3.984375 -7.890625 C 4.390625 -7.890625 4.785156 -7.820312 5.171875 -7.6875 C 5.554688 -7.5625 5.894531 -7.367188 6.1875 -7.109375 C 6.488281 -6.859375 6.734375 -6.539062 6.921875 -6.15625 C 7.109375 -5.78125 7.203125 -5.335938 7.203125 -4.828125 L 7.203125 -2.953125 C 7.203125 -2.441406 7.109375 -1.992188 6.921875 -1.609375 C 6.734375 -1.234375 6.488281 -0.914062 6.1875 -0.65625 C 5.894531 -0.394531 5.554688 -0.203125 5.171875 -0.078125 C 4.785156 0.046875 4.390625 0.109375 3.984375 0.109375 C 3.578125 0.109375 3.179688 0.046875 2.796875 -0.078125 C 2.410156 -0.203125 2.066406 -0.394531 1.765625 -0.65625 C 1.472656 -0.914062 1.234375 -1.234375 1.046875 -1.609375 C 0.867188 -1.992188 0.78125 -2.441406 0.78125 -2.953125 Z M 6.109375 -4.828125 C 6.109375 -5.171875 6.046875 -5.472656 5.921875 -5.734375 C 5.804688 -5.992188 5.648438 -6.207031 5.453125 -6.375 C 5.253906 -6.550781 5.023438 -6.679688 4.765625 -6.765625 C 4.515625 -6.859375 4.253906 -6.90625 3.984375 -6.90625 C 3.722656 -6.90625 3.460938 -6.859375 3.203125 -6.765625 C 2.953125 -6.679688 2.722656 -6.550781 2.515625 -6.375 C 2.316406 -6.207031 2.160156 -5.992188 2.046875 -5.734375 C 1.929688 -5.472656 1.875 -5.171875 1.875 -4.828125 L 1.875 -2.953125 C 1.875 -2.597656 1.929688 -2.289062 2.046875 -2.03125 C 2.160156 -1.78125 2.316406 -1.566406 2.515625 -1.390625 C 2.722656 -1.222656 2.953125 -1.09375 3.203125 -1 C 3.460938 -0.914062 3.722656 -0.875 3.984375 -0.875 C 4.253906 -0.875 4.515625 -0.914062 4.765625 -1 C 5.023438 -1.09375 5.253906 -1.222656 5.453125 -1.390625 C 5.648438 -1.566406 5.804688 -1.78125 5.921875 -2.03125 C 6.046875 -2.289062 6.109375 -2.597656 6.109375 -2.953125 Z M 6.109375 -4.828125 "/></g></g></g><g fill="#000000" fill-opacity="1"><g transform="translate(156.057298, 14.224915)"><g><path d="M 1.015625 0 L 1.015625 -7.78125 L 1.96875 -7.78125 L 2.09375 -6.703125 C 2.382812 -7.117188 2.722656 -7.421875 3.109375 -7.609375 C 3.503906 -7.796875 3.90625 -7.890625 4.3125 -7.890625 C 4.632812 -7.890625 4.945312 -7.828125 5.25 -7.703125 C 5.550781 -7.578125 5.816406 -7.394531 6.046875 -7.15625 C 6.273438 -6.925781 6.457031 -6.640625 6.59375 -6.296875 C 6.738281 -5.953125 6.8125 -5.554688 6.8125 -5.109375 L 6.8125 0 L 5.734375 0 L 5.734375 -5.109375 C 5.734375 -5.421875 5.6875 -5.6875 5.59375 -5.90625 C 5.507812 -6.132812 5.394531 -6.320312 5.25 -6.46875 C 5.101562 -6.613281 4.9375 -6.722656 4.75 -6.796875 C 4.5625 -6.867188 4.363281 -6.90625 4.15625 -6.90625 C 3.90625 -6.90625 3.65625 -6.851562 3.40625 -6.75 C 3.164062 -6.65625 2.945312 -6.515625 2.75 -6.328125 C 2.5625 -6.148438 2.40625 -5.929688 2.28125 -5.671875 C 2.15625 -5.410156 2.09375 -5.109375 2.09375 -4.765625 L 2.09375 0 Z M 1.015625 0 "/></g></g></g><g fill="#000000" fill-opacity="1"><g transform="translate(163.883854, 14.224915)"><g/></g></g><g fill="#000000" fill-opacity="1"><g transform="translate(168.862974, 14.224915)"><g><path d="M 1.484375 0 L 1.484375 -6.796875 L 0.3125 -6.796875 L 0.3125 -7.78125 L 1.484375 -7.78125 L 1.484375 -9.1875 C 1.484375 -10.039062 1.664062 -10.6875 2.03125 -11.125 C 2.40625 -11.5625 2.890625 -11.78125 3.484375 -11.78125 C 3.835938 -11.78125 4.207031 -11.703125 4.59375 -11.546875 L 4.421875 -10.609375 C 4.109375 -10.734375 3.828125 -10.796875 3.578125 -10.796875 C 3.242188 -10.796875 2.988281 -10.664062 2.8125 -10.40625 C 2.644531 -10.144531 2.5625 -9.738281 2.5625 -9.1875 L 2.5625 -7.78125 L 4.4375 -7.78125 L 4.4375 -6.796875 L 2.5625 -6.796875 L 2.5625 0 Z M 1.484375 0 "/></g></g></g><g fill="#000000" fill-opacity="1"><g transform="translate(173.608692, 14.224915)"><g><path d="M 0.78125 -4.828125 C 0.78125 -5.335938 0.867188 -5.78125 1.046875 -6.15625 C 1.234375 -6.539062 1.472656 -6.859375 1.765625 -7.109375 C 2.066406 -7.367188 2.410156 -7.5625 2.796875 -7.6875 C 3.179688 -7.820312 3.578125 -7.890625 3.984375 -7.890625 C 4.390625 -7.890625 4.785156 -7.820312 5.171875 -7.6875 C 5.554688 -7.5625 5.894531 -7.367188 6.1875 -7.109375 C 6.488281 -6.859375 6.734375 -6.539062 6.921875 -6.15625 C 7.109375 -5.78125 7.203125 -5.335938 7.203125 -4.828125 L 7.203125 -2.953125 C 7.203125 -2.441406 7.109375 -1.992188 6.921875 -1.609375 C 6.734375 -1.234375 6.488281 -0.914062 6.1875 -0.65625 C 5.894531 -0.394531 5.554688 -0.203125 5.171875 -0.078125 C 4.785156 0.046875 4.390625 0.109375 3.984375 0.109375 C 3.578125 0.109375 3.179688 0.046875 2.796875 -0.078125 C 2.410156 -0.203125 2.066406 -0.394531 1.765625 -0.65625 C 1.472656 -0.914062 1.234375 -1.234375 1.046875 -1.609375 C 0.867188 -1.992188 0.78125 -2.441406 0.78125 -2.953125 Z M 6.109375 -4.828125 C 6.109375 -5.171875 6.046875 -5.472656 5.921875 -5.734375 C 5.804688 -5.992188 5.648438 -6.207031 5.453125 -6.375 C 5.253906 -6.550781 5.023438 -6.679688 4.765625 -6.765625 C 4.515625 -6.859375 4.253906 -6.90625 3.984375 -6.90625 C 3.722656 -6.90625 3.460938 -6.859375 3.203125 -6.765625 C 2.953125 -6.679688 2.722656 -6.550781 2.515625 -6.375 C 2.316406 -6.207031 2.160156 -5.992188 2.046875 -5.734375 C 1.929688 -5.472656 1.875 -5.171875 1.875 -4.828125 L 1.875 -2.953125 C 1.875 -2.597656 1.929688 -2.289062 2.046875 -2.03125 C 2.160156 -1.78125 2.316406 -1.566406 2.515625 -1.390625 C 2.722656 -1.222656 2.953125 -1.09375 3.203125 -1 C 3.460938 -0.914062 3.722656 -0.875 3.984375 -0.875 C 4.253906 -0.875 4.515625 -0.914062 4.765625 -1 C 5.023438 -1.09375 5.253906 -1.222656 5.453125 -1.390625 C 5.648438 -1.566406 5.804688 -1.78125 5.921875 -2.03125 C 6.046875 -2.289062 6.109375 -2.597656 6.109375 -2.953125 Z M 6.109375 -4.828125 "/></g></g></g><g fill="#000000" fill-opacity="1"><g transform="translate(181.590849, 14.224915)"><g><path d="M 5.265625 -6.6875 C 4.890625 -6.832031 4.535156 -6.90625 4.203125 -6.90625 C 3.910156 -6.90625 3.632812 -6.847656 3.375 -6.734375 C 3.113281 -6.628906 2.890625 -6.472656 2.703125 -6.265625 C 2.515625 -6.054688 2.363281 -5.804688 2.25 -5.515625 C 2.144531 -5.222656 2.09375 -4.882812 2.09375 -4.5 L 2.09375 0 L 1.015625 0 L 1.015625 -7.78125 L 1.984375 -7.78125 L 2.09375 -6.65625 C 2.582031 -7.476562 3.285156 -7.890625 4.203125 -7.890625 C 4.503906 -7.890625 4.859375 -7.832031 5.265625 -7.71875 Z M 5.265625 -6.6875 "/></g></g></g><g fill="#000000" fill-opacity="1"><g transform="translate(187.16124, 14.224915)"><g><path d="M 5.578125 -0.921875 C 5.273438 -0.554688 4.9375 -0.289062 4.5625 -0.125 C 4.195312 0.03125 3.828125 0.109375 3.453125 0.109375 C 3.117188 0.109375 2.796875 0.046875 2.484375 -0.078125 C 2.171875 -0.210938 1.894531 -0.40625 1.65625 -0.65625 C 1.414062 -0.914062 1.222656 -1.222656 1.078125 -1.578125 C 0.929688 -1.941406 0.859375 -2.359375 0.859375 -2.828125 L 0.859375 -4.953125 C 0.859375 -5.421875 0.929688 -5.832031 1.078125 -6.1875 C 1.222656 -6.550781 1.414062 -6.859375 1.65625 -7.109375 C 1.894531 -7.367188 2.171875 -7.5625 2.484375 -7.6875 C 2.796875 -7.820312 3.117188 -7.890625 3.453125 -7.890625 C 3.828125 -7.890625 4.195312 -7.804688 4.5625 -7.640625 C 4.9375 -7.484375 5.273438 -7.222656 5.578125 -6.859375 L 5.6875 -7.78125 L 6.65625 -7.78125 L 6.65625 0.6875 C 6.65625 1.15625 6.566406 1.5625 6.390625 1.90625 C 6.210938 2.257812 5.976562 2.554688 5.6875 2.796875 C 5.40625 3.046875 5.070312 3.226562 4.6875 3.34375 C 4.3125 3.46875 3.925781 3.53125 3.53125 3.53125 C 3.039062 3.53125 2.566406 3.4375 2.109375 3.25 C 1.648438 3.070312 1.25 2.789062 0.90625 2.40625 L 1.5625 1.671875 C 1.800781 1.953125 2.097656 2.164062 2.453125 2.3125 C 2.804688 2.46875 3.171875 2.546875 3.546875 2.546875 C 3.804688 2.546875 4.054688 2.507812 4.296875 2.4375 C 4.546875 2.363281 4.765625 2.25 4.953125 2.09375 C 5.140625 1.945312 5.289062 1.753906 5.40625 1.515625 C 5.519531 1.285156 5.578125 1.007812 5.578125 0.6875 Z M 5.578125 -4.8125 C 5.578125 -5.15625 5.519531 -5.457031 5.40625 -5.71875 C 5.300781 -5.976562 5.160156 -6.195312 4.984375 -6.375 C 4.804688 -6.550781 4.601562 -6.679688 4.375 -6.765625 C 4.15625 -6.859375 3.925781 -6.90625 3.6875 -6.90625 C 3.46875 -6.90625 3.25 -6.863281 3.03125 -6.78125 C 2.820312 -6.707031 2.632812 -6.585938 2.46875 -6.421875 C 2.3125 -6.253906 2.1875 -6.050781 2.09375 -5.8125 C 2 -5.570312 1.953125 -5.285156 1.953125 -4.953125 L 1.953125 -2.828125 C 1.953125 -2.492188 2 -2.207031 2.09375 -1.96875 C 2.1875 -1.726562 2.3125 -1.523438 2.46875 -1.359375 C 2.632812 -1.191406 2.820312 -1.066406 3.03125 -0.984375 C 3.25 -0.910156 3.46875 -0.875 3.6875 -0.875 C 3.925781 -0.875 4.15625 -0.914062 4.375 -1 C 4.601562 -1.09375 4.804688 -1.226562 4.984375 -1.40625 C 5.160156 -1.582031 5.300781 -1.800781 5.40625 -2.0625 C 5.519531 -2.320312 5.578125 -2.625 5.578125 -2.96875 Z M 5.578125 -4.8125 "/></g></g></g><g fill="#000000" fill-opacity="1"><g transform="translate(194.832195, 14.224915)"><g><path d="M 6.75 -1.484375 C 6.613281 -1.210938 6.441406 -0.976562 6.234375 -0.78125 C 6.023438 -0.582031 5.796875 -0.414062 5.546875 -0.28125 C 5.304688 -0.144531 5.046875 -0.046875 4.765625 0.015625 C 4.484375 0.078125 4.203125 0.109375 3.921875 0.109375 C 3.523438 0.109375 3.140625 0.046875 2.765625 -0.078125 C 2.390625 -0.203125 2.054688 -0.394531 1.765625 -0.65625 C 1.472656 -0.914062 1.234375 -1.234375 1.046875 -1.609375 C 0.867188 -1.992188 0.78125 -2.441406 0.78125 -2.953125 L 0.78125 -4.671875 C 0.78125 -5.210938 0.867188 -5.679688 1.046875 -6.078125 C 1.222656 -6.472656 1.453125 -6.804688 1.734375 -7.078125 C 2.015625 -7.347656 2.335938 -7.550781 2.703125 -7.6875 C 3.066406 -7.820312 3.441406 -7.890625 3.828125 -7.890625 C 4.210938 -7.890625 4.585938 -7.820312 4.953125 -7.6875 C 5.328125 -7.550781 5.65625 -7.347656 5.9375 -7.078125 C 6.21875 -6.804688 6.445312 -6.472656 6.625 -6.078125 C 6.800781 -5.679688 6.890625 -5.210938 6.890625 -4.671875 C 6.890625 -4.179688 6.765625 -3.828125 6.515625 -3.609375 C 6.273438 -3.398438 5.941406 -3.296875 5.515625 -3.296875 L 1.875 -3.296875 L 1.875 -2.953125 C 1.875 -2.609375 1.929688 -2.304688 2.046875 -2.046875 C 2.160156 -1.785156 2.3125 -1.566406 2.5 -1.390625 C 2.695312 -1.222656 2.914062 -1.09375 3.15625 -1 C 3.40625 -0.914062 3.660156 -0.875 3.921875 -0.875 C 4.316406 -0.875 4.691406 -0.972656 5.046875 -1.171875 C 5.398438 -1.378906 5.660156 -1.679688 5.828125 -2.078125 Z M 1.875 -4.28125 L 5.4375 -4.28125 C 5.6875 -4.28125 5.8125 -4.410156 5.8125 -4.671875 C 5.8125 -5.046875 5.753906 -5.367188 5.640625 -5.640625 C 5.523438 -5.921875 5.375 -6.15625 5.1875 -6.34375 C 5 -6.53125 4.785156 -6.671875 4.546875 -6.765625 C 4.316406 -6.859375 4.078125 -6.90625 3.828125 -6.90625 C 3.578125 -6.90625 3.332031 -6.859375 3.09375 -6.765625 C 2.863281 -6.671875 2.65625 -6.53125 2.46875 -6.34375 C 2.289062 -6.15625 2.144531 -5.921875 2.03125 -5.640625 C 1.925781 -5.367188 1.875 -5.046875 1.875 -4.671875 Z M 1.875 -4.28125 "/></g></g></g><g fill="#000000" fill-opacity="1"><g transform="translate(202.34755, 14.224915)"><g><path d="M 4.4375 -0.140625 C 4.039062 0.0234375 3.648438 0.109375 3.265625 0.109375 C 3.023438 0.109375 2.796875 0.0703125 2.578125 0 C 2.359375 -0.0820312 2.171875 -0.207031 2.015625 -0.375 C 1.859375 -0.539062 1.726562 -0.757812 1.625 -1.03125 C 1.53125 -1.300781 1.484375 -1.625 1.484375 -2 L 1.484375 -6.796875 L 0.3125 -6.796875 L 0.3125 -7.78125 L 1.484375 -7.78125 L 1.484375 -9.796875 L 2.5625 -10.109375 L 2.5625 -7.78125 L 4.4375 -7.78125 L 4.4375 -6.796875 L 2.5625 -6.796875 L 2.5625 -2 C 2.5625 -1.59375 2.644531 -1.300781 2.8125 -1.125 C 2.976562 -0.957031 3.191406 -0.875 3.453125 -0.875 C 3.722656 -0.875 4.050781 -0.957031 4.4375 -1.125 Z M 4.4375 -0.140625 "/></g></g></g><g fill="#000000" fill-opacity="1"><g transform="translate(207.093268, 14.224915)"><g/></g></g><g fill="#000000" fill-opacity="1"><g transform="translate(212.072388, 14.224915)"><g><path d="M 5.578125 -0.921875 C 5.273438 -0.554688 4.9375 -0.289062 4.5625 -0.125 C 4.195312 0.03125 3.828125 0.109375 3.453125 0.109375 C 3.117188 0.109375 2.796875 0.046875 2.484375 -0.078125 C 2.171875 -0.210938 1.894531 -0.40625 1.65625 -0.65625 C 1.414062 -0.914062 1.222656 -1.222656 1.078125 -1.578125 C 0.929688 -1.941406 0.859375 -2.359375 0.859375 -2.828125 L 0.859375 -4.953125 C 0.859375 -5.421875 0.929688 -5.832031 1.078125 -6.1875 C 1.222656 -6.550781 1.414062 -6.859375 1.65625 -7.109375 C 1.894531 -7.367188 2.171875 -7.5625 2.484375 -7.6875 C 2.796875 -7.820312 3.117188 -7.890625 3.453125 -7.890625 C 3.828125 -7.890625 4.195312 -7.804688 4.5625 -7.640625 C 4.9375 -7.484375 5.273438 -7.222656 5.578125 -6.859375 L 5.6875 -7.78125 L 6.65625 -7.78125 L 6.65625 0 L 5.671875 0 Z M 5.578125 -4.8125 C 5.578125 -5.15625 5.519531 -5.457031 5.40625 -5.71875 C 5.300781 -5.976562 5.160156 -6.195312 4.984375 -6.375 C 4.804688 -6.550781 4.601562 -6.679688 4.375 -6.765625 C 4.15625 -6.859375 3.925781 -6.90625 3.6875 -6.90625 C 3.46875 -6.90625 3.25 -6.863281 3.03125 -6.78125 C 2.820312 -6.707031 2.632812 -6.585938 2.46875 -6.421875 C 2.3125 -6.253906 2.1875 -6.050781 2.09375 -5.8125 C 2 -5.570312 1.953125 -5.285156 1.953125 -4.953125 L 1.953125 -2.828125 C 1.953125 -2.492188 2 -2.207031 2.09375 -1.96875 C 2.1875 -1.726562 2.3125 -1.523438 2.46875 -1.359375 C 2.632812 -1.191406 2.820312 -1.066406 3.03125 -0.984375 C 3.25 -0.910156 3.46875 -0.875 3.6875 -0.875 C 3.925781 -0.875 4.15625 -0.914062 4.375 -1 C 4.601562 -1.09375 4.804688 -1.226562 4.984375 -1.40625 C 5.160156 -1.582031 5.300781 -1.800781 5.40625 -2.0625 C 5.519531 -2.320312 5.578125 -2.625 5.578125 -2.96875 Z M 5.578125 -4.8125 "/></g></g></g><g fill="#000000" fill-opacity="1"><g transform="translate(219.743344, 14.224915)"><g><path d="M 2 0 L 1.015625 0 L 1.015625 -11.671875 L 2.09375 -11.671875 L 2.09375 -6.859375 C 2.394531 -7.222656 2.726562 -7.484375 3.09375 -7.640625 C 3.46875 -7.804688 3.84375 -7.890625 4.21875 -7.890625 C 4.550781 -7.890625 4.875 -7.820312 5.1875 -7.6875 C 5.507812 -7.5625 5.785156 -7.367188 6.015625 -7.109375 C 6.253906 -6.859375 6.445312 -6.550781 6.59375 -6.1875 C 6.738281 -5.832031 6.8125 -5.421875 6.8125 -4.953125 L 6.8125 -2.828125 C 6.8125 -2.359375 6.738281 -1.941406 6.59375 -1.578125 C 6.445312 -1.222656 6.253906 -0.914062 6.015625 -0.65625 C 5.785156 -0.40625 5.507812 -0.210938 5.1875 -0.078125 C 4.875 0.046875 4.550781 0.109375 4.21875 0.109375 C 3.84375 0.109375 3.46875 0.03125 3.09375 -0.125 C 2.726562 -0.289062 2.394531 -0.554688 2.09375 -0.921875 Z M 2.09375 -2.96875 C 2.09375 -2.625 2.144531 -2.320312 2.25 -2.0625 C 2.363281 -1.800781 2.507812 -1.582031 2.6875 -1.40625 C 2.863281 -1.226562 3.066406 -1.09375 3.296875 -1 C 3.523438 -0.914062 3.753906 -0.875 3.984375 -0.875 C 4.203125 -0.875 4.414062 -0.910156 4.625 -0.984375 C 4.84375 -1.066406 5.03125 -1.191406 5.1875 -1.359375 C 5.351562 -1.523438 5.484375 -1.726562 5.578125 -1.96875 C 5.679688 -2.207031 5.734375 -2.492188 5.734375 -2.828125 L 5.734375 -4.953125 C 5.734375 -5.285156 5.679688 -5.570312 5.578125 -5.8125 C 5.484375 -6.050781 5.351562 -6.253906 5.1875 -6.421875 C 5.03125 -6.585938 4.84375 -6.707031 4.625 -6.78125 C 4.414062 -6.863281 4.203125 -6.90625 3.984375 -6.90625 C 3.753906 -6.90625 3.523438 -6.859375 3.296875 -6.765625 C 3.066406 -6.679688 2.863281 -6.550781 2.6875 -6.375 C 2.507812 -6.195312 2.363281 -5.976562 2.25 -5.71875 C 2.144531 -5.457031 2.09375 -5.15625 2.09375 -4.8125 Z M 2.09375 -2.96875 "/></g></g></g><g fill="#000000" fill-opacity="1"><g transform="translate(227.414299, 14.224915)"><g><path d="M 0.78125 -4.828125 C 0.78125 -5.335938 0.867188 -5.78125 1.046875 -6.15625 C 1.234375 -6.539062 1.472656 -6.859375 1.765625 -7.109375 C 2.066406 -7.367188 2.410156 -7.5625 2.796875 -7.6875 C 3.179688 -7.820312 3.578125 -7.890625 3.984375 -7.890625 C 4.390625 -7.890625 4.785156 -7.820312 5.171875 -7.6875 C 5.554688 -7.5625 5.894531 -7.367188 6.1875 -7.109375 C 6.488281 -6.859375 6.734375 -6.539062 6.921875 -6.15625 C 7.109375 -5.78125 7.203125 -5.335938 7.203125 -4.828125 L 7.203125 -2.953125 C 7.203125 -2.441406 7.109375 -1.992188 6.921875 -1.609375 C 6.734375 -1.234375 6.488281 -0.914062 6.1875 -0.65625 C 5.894531 -0.394531 5.554688 -0.203125 5.171875 -0.078125 C 4.785156 0.046875 4.390625 0.109375 3.984375 0.109375 C 3.578125 0.109375 3.179688 0.046875 2.796875 -0.078125 C 2.410156 -0.203125 2.066406 -0.394531 1.765625 -0.65625 C 1.472656 -0.914062 1.234375 -1.234375 1.046875 -1.609375 C 0.867188 -1.992188 0.78125 -2.441406 0.78125 -2.953125 Z M 6.109375 -4.828125 C 6.109375 -5.171875 6.046875 -5.472656 5.921875 -5.734375 C 5.804688 -5.992188 5.648438 -6.207031 5.453125 -6.375 C 5.253906 -6.550781 5.023438 -6.679688 4.765625 -6.765625 C 4.515625 -6.859375 4.253906 -6.90625 3.984375 -6.90625 C 3.722656 -6.90625 3.460938 -6.859375 3.203125 -6.765625 C 2.953125 -6.679688 2.722656 -6.550781 2.515625 -6.375 C 2.316406 -6.207031 2.160156 -5.992188 2.046875 -5.734375 C 1.929688 -5.472656 1.875 -5.171875 1.875 -4.828125 L 1.875 -2.953125 C 1.875 -2.597656 1.929688 -2.289062 2.046875 -2.03125 C 2.160156 -1.78125 2.316406 -1.566406 2.515625 -1.390625 C 2.722656 -1.222656 2.953125 -1.09375 3.203125 -1 C 3.460938 -0.914062 3.722656 -0.875 3.984375 -0.875 C 4.253906 -0.875 4.515625 -0.914062 4.765625 -1 C 5.023438 -1.09375 5.253906 -1.222656 5.453125 -1.390625 C 5.648438 -1.566406 5.804688 -1.78125 5.921875 -2.03125 C 6.046875 -2.289062 6.109375 -2.597656 6.109375 -2.953125 Z M 6.109375 -4.828125 "/></g></g></g><g fill="#000000" fill-opacity="1"><g transform="translate(235.396456, 14.224915)"><g><path d="M 2.09375 -7.78125 L 2.09375 -2.609375 C 2.09375 -2.015625 2.25 -1.578125 2.5625 -1.296875 C 2.875 -1.015625 3.234375 -0.875 3.640625 -0.875 C 3.890625 -0.875 4.140625 -0.921875 4.390625 -1.015625 C 4.640625 -1.117188 4.863281 -1.265625 5.0625 -1.453125 C 5.257812 -1.640625 5.421875 -1.859375 5.546875 -2.109375 C 5.671875 -2.367188 5.734375 -2.660156 5.734375 -2.984375 L 5.734375 -7.78125 L 6.8125 -7.78125 L 6.8125 0 L 5.84375 0 L 5.734375 -1 C 5.398438 -0.625 5.046875 -0.34375 4.671875 -0.15625 C 4.296875 0.0195312 3.90625 0.109375 3.5 0.109375 C 3.175781 0.109375 2.863281 0.0507812 2.5625 -0.0625 C 2.257812 -0.1875 1.992188 -0.363281 1.765625 -0.59375 C 1.535156 -0.820312 1.351562 -1.101562 1.21875 -1.4375 C 1.082031 -1.78125 1.015625 -2.171875 1.015625 -2.609375 L 1.015625 -7.78125 Z M 2.09375 -7.78125 "/></g></g></g><g fill="#000000" fill-opacity="1"><g transform="translate(243.223013, 14.224915)"><g><path d="M 4.4375 -0.140625 C 4.039062 0.0234375 3.648438 0.109375 3.265625 0.109375 C 3.023438 0.109375 2.796875 0.0703125 2.578125 0 C 2.359375 -0.0820312 2.171875 -0.207031 2.015625 -0.375 C 1.859375 -0.539062 1.726562 -0.757812 1.625 -1.03125 C 1.53125 -1.300781 1.484375 -1.625 1.484375 -2 L 1.484375 -6.796875 L 0.3125 -6.796875 L 0.3125 -7.78125 L 1.484375 -7.78125 L 1.484375 -9.796875 L 2.5625 -10.109375 L 2.5625 -7.78125 L 4.4375 -7.78125 L 4.4375 -6.796875 L 2.5625 -6.796875 L 2.5625 -2 C 2.5625 -1.59375 2.644531 -1.300781 2.8125 -1.125 C 2.976562 -0.957031 3.191406 -0.875 3.453125 -0.875 C 3.722656 -0.875 4.050781 -0.957031 4.4375 -1.125 Z M 4.4375 -0.140625 "/></g></g></g><g fill="#000000" fill-opacity="1"><g transform="translate(247.968731, 14.224915)"><g/></g></g><g fill="#000000" fill-opacity="1"><g transform="translate(252.947836, 14.224915)"><g><path d="M 6.75 -1.84375 C 6.632812 -1.519531 6.476562 -1.234375 6.28125 -0.984375 C 6.082031 -0.742188 5.851562 -0.539062 5.59375 -0.375 C 5.34375 -0.21875 5.066406 -0.0976562 4.765625 -0.015625 C 4.472656 0.0664062 4.171875 0.109375 3.859375 0.109375 C 3.472656 0.109375 3.09375 0.046875 2.71875 -0.078125 C 2.351562 -0.210938 2.023438 -0.40625 1.734375 -0.65625 C 1.453125 -0.914062 1.222656 -1.234375 1.046875 -1.609375 C 0.867188 -1.992188 0.78125 -2.441406 0.78125 -2.953125 L 0.78125 -4.828125 C 0.78125 -5.335938 0.867188 -5.78125 1.046875 -6.15625 C 1.222656 -6.539062 1.453125 -6.859375 1.734375 -7.109375 C 2.023438 -7.367188 2.351562 -7.5625 2.71875 -7.6875 C 3.09375 -7.820312 3.472656 -7.890625 3.859375 -7.890625 C 4.160156 -7.890625 4.453125 -7.847656 4.734375 -7.765625 C 5.023438 -7.691406 5.289062 -7.578125 5.53125 -7.421875 C 5.78125 -7.273438 6.003906 -7.085938 6.203125 -6.859375 C 6.398438 -6.640625 6.5625 -6.378906 6.6875 -6.078125 L 5.734375 -5.53125 C 5.585938 -5.988281 5.332031 -6.332031 4.96875 -6.5625 C 4.613281 -6.789062 4.234375 -6.90625 3.828125 -6.90625 C 3.578125 -6.90625 3.332031 -6.859375 3.09375 -6.765625 C 2.863281 -6.679688 2.65625 -6.550781 2.46875 -6.375 C 2.289062 -6.207031 2.144531 -5.992188 2.03125 -5.734375 C 1.925781 -5.472656 1.875 -5.171875 1.875 -4.828125 L 1.875 -2.953125 C 1.875 -2.609375 1.925781 -2.304688 2.03125 -2.046875 C 2.144531 -1.785156 2.289062 -1.566406 2.46875 -1.390625 C 2.65625 -1.222656 2.863281 -1.09375 3.09375 -1 C 3.332031 -0.914062 3.578125 -0.875 3.828125 -0.875 C 4.234375 -0.875 4.617188 -0.992188 4.984375 -1.234375 C 5.347656 -1.472656 5.601562 -1.832031 5.75 -2.3125 Z M 6.75 -1.84375 "/></g></g></g><g fill="#000000" fill-opacity="1"><g transform="translate(260.10535, 14.224915)"><g><path d="M 0.75 -10.5 C 0.75 -10.726562 0.828125 -10.921875 0.984375 -11.078125 C 1.140625 -11.234375 1.332031 -11.3125 1.5625 -11.3125 C 1.789062 -11.3125 1.976562 -11.234375 2.125 -11.078125 C 2.28125 -10.921875 2.359375 -10.726562 2.359375 -10.5 C 2.359375 -10.269531 2.28125 -10.078125 2.125 -9.921875 C 1.976562 -9.773438 1.789062 -9.703125 1.5625 -9.703125 C 1.332031 -9.703125 1.140625 -9.773438 0.984375 -9.921875 C 0.828125 -10.078125 0.75 -10.269531 0.75 -10.5 Z M 1.015625 0 L 1.015625 -7.78125 L 2.09375 -7.78125 L 2.09375 0 Z M 1.015625 0 "/></g></g></g><g fill="#000000" fill-opacity="1"><g transform="translate(263.217306, 14.224915)"><g><path d="M 5.265625 -6.6875 C 4.890625 -6.832031 4.535156 -6.90625 4.203125 -6.90625 C 3.910156 -6.90625 3.632812 -6.847656 3.375 -6.734375 C 3.113281 -6.628906 2.890625 -6.472656 2.703125 -6.265625 C 2.515625 -6.054688 2.363281 -5.804688 2.25 -5.515625 C 2.144531 -5.222656 2.09375 -4.882812 2.09375 -4.5 L 2.09375 0 L 1.015625 0 L 1.015625 -7.78125 L 1.984375 -7.78125 L 2.09375 -6.65625 C 2.582031 -7.476562 3.285156 -7.890625 4.203125 -7.890625 C 4.503906 -7.890625 4.859375 -7.832031 5.265625 -7.71875 Z M 5.265625 -6.6875 "/></g></g></g><g fill="#000000" fill-opacity="1"><g transform="translate(268.787681, 14.224915)"><g><path d="M 6.75 -1.84375 C 6.632812 -1.519531 6.476562 -1.234375 6.28125 -0.984375 C 6.082031 -0.742188 5.851562 -0.539062 5.59375 -0.375 C 5.34375 -0.21875 5.066406 -0.0976562 4.765625 -0.015625 C 4.472656 0.0664062 4.171875 0.109375 3.859375 0.109375 C 3.472656 0.109375 3.09375 0.046875 2.71875 -0.078125 C 2.351562 -0.210938 2.023438 -0.40625 1.734375 -0.65625 C 1.453125 -0.914062 1.222656 -1.234375 1.046875 -1.609375 C 0.867188 -1.992188 0.78125 -2.441406 0.78125 -2.953125 L 0.78125 -4.828125 C 0.78125 -5.335938 0.867188 -5.78125 1.046875 -6.15625 C 1.222656 -6.539062 1.453125 -6.859375 1.734375 -7.109375 C 2.023438 -7.367188 2.351562 -7.5625 2.71875 -7.6875 C 3.09375 -7.820312 3.472656 -7.890625 3.859375 -7.890625 C 4.160156 -7.890625 4.453125 -7.847656 4.734375 -7.765625 C 5.023438 -7.691406 5.289062 -7.578125 5.53125 -7.421875 C 5.78125 -7.273438 6.003906 -7.085938 6.203125 -6.859375 C 6.398438 -6.640625 6.5625 -6.378906 6.6875 -6.078125 L 5.734375 -5.53125 C 5.585938 -5.988281 5.332031 -6.332031 4.96875 -6.5625 C 4.613281 -6.789062 4.234375 -6.90625 3.828125 -6.90625 C 3.578125 -6.90625 3.332031 -6.859375 3.09375 -6.765625 C 2.863281 -6.679688 2.65625 -6.550781 2.46875 -6.375 C 2.289062 -6.207031 2.144531 -5.992188 2.03125 -5.734375 C 1.925781 -5.472656 1.875 -5.171875 1.875 -4.828125 L 1.875 -2.953125 C 1.875 -2.609375 1.925781 -2.304688 2.03125 -2.046875 C 2.144531 -1.785156 2.289062 -1.566406 2.46875 -1.390625 C 2.65625 -1.222656 2.863281 -1.09375 3.09375 -1 C 3.332031 -0.914062 3.578125 -0.875 3.828125 -0.875 C 4.234375 -0.875 4.617188 -0.992188 4.984375 -1.234375 C 5.347656 -1.472656 5.601562 -1.832031 5.75 -2.3125 Z M 6.75 -1.84375 "/></g></g></g><g fill="#000000" fill-opacity="1"><g transform="translate(275.945166, 14.224915)"><g><path d="M 2.09375 -7.78125 L 2.09375 -2.609375 C 2.09375 -2.015625 2.25 -1.578125 2.5625 -1.296875 C 2.875 -1.015625 3.234375 -0.875 3.640625 -0.875 C 3.890625 -0.875 4.140625 -0.921875 4.390625 -1.015625 C 4.640625 -1.117188 4.863281 -1.265625 5.0625 -1.453125 C 5.257812 -1.640625 5.421875 -1.859375 5.546875 -2.109375 C 5.671875 -2.367188 5.734375 -2.660156 5.734375 -2.984375 L 5.734375 -7.78125 L 6.8125 -7.78125 L 6.8125 0 L 5.84375 0 L 5.734375 -1 C 5.398438 -0.625 5.046875 -0.34375 4.671875 -0.15625 C 4.296875 0.0195312 3.90625 0.109375 3.5 0.109375 C 3.175781 0.109375 2.863281 0.0507812 2.5625 -0.0625 C 2.257812 -0.1875 1.992188 -0.363281 1.765625 -0.59375 C 1.535156 -0.820312 1.351562 -1.101562 1.21875 -1.4375 C 1.082031 -1.78125 1.015625 -2.171875 1.015625 -2.609375 L 1.015625 -7.78125 Z M 2.09375 -7.78125 "/></g></g></g><g fill="#000000" fill-opacity="1"><g transform="translate(283.771737, 14.224915)"><g><path d="M 1.015625 0 L 1.015625 -11.671875 L 2.09375 -11.671875 L 2.09375 0 Z M 1.015625 0 "/></g></g></g><g fill="#000000" fill-opacity="1"><g transform="translate(286.883693, 14.224915)"><g><path d="M 5.578125 -0.921875 C 5.273438 -0.554688 4.9375 -0.289062 4.5625 -0.125 C 4.195312 0.03125 3.828125 0.109375 3.453125 0.109375 C 3.117188 0.109375 2.796875 0.046875 2.484375 -0.078125 C 2.171875 -0.210938 1.894531 -0.40625 1.65625 -0.65625 C 1.414062 -0.914062 1.222656 -1.222656 1.078125 -1.578125 C 0.929688 -1.941406 0.859375 -2.359375 0.859375 -2.828125 L 0.859375 -4.953125 C 0.859375 -5.421875 0.929688 -5.832031 1.078125 -6.1875 C 1.222656 -6.550781 1.414062 -6.859375 1.65625 -7.109375 C 1.894531 -7.367188 2.171875 -7.5625 2.484375 -7.6875 C 2.796875 -7.820312 3.117188 -7.890625 3.453125 -7.890625 C 3.828125 -7.890625 4.195312 -7.804688 4.5625 -7.640625 C 4.9375 -7.484375 5.273438 -7.222656 5.578125 -6.859375 L 5.6875 -7.78125 L 6.65625 -7.78125 L 6.65625 0 L 5.671875 0 Z M 5.578125 -4.8125 C 5.578125 -5.15625 5.519531 -5.457031 5.40625 -5.71875 C 5.300781 -5.976562 5.160156 -6.195312 4.984375 -6.375 C 4.804688 -6.550781 4.601562 -6.679688 4.375 -6.765625 C 4.15625 -6.859375 3.925781 -6.90625 3.6875 -6.90625 C 3.46875 -6.90625 3.25 -6.863281 3.03125 -6.78125 C 2.820312 -6.707031 2.632812 -6.585938 2.46875 -6.421875 C 2.3125 -6.253906 2.1875 -6.050781 2.09375 -5.8125 C 2 -5.570312 1.953125 -5.285156 1.953125 -4.953125 L 1.953125 -2.828125 C 1.953125 -2.492188 2 -2.207031 2.09375 -1.96875 C 2.1875 -1.726562 2.3125 -1.523438 2.46875 -1.359375 C 2.632812 -1.191406 2.820312 -1.066406 3.03125 -0.984375 C 3.25 -0.910156 3.46875 -0.875 3.6875 -0.875 C 3.925781 -0.875 4.15625 -0.914062 4.375 -1 C 4.601562 -1.09375 4.804688 -1.226562 4.984375 -1.40625 C 5.160156 -1.582031 5.300781 -1.800781 5.40625 -2.0625 C 5.519531 -2.320312 5.578125 -2.625 5.578125 -2.96875 Z M 5.578125 -4.8125 "/></g></g><g transform="translate(294.554633, 14.224915)"><g><path d="M 5.265625 -6.6875 C 4.890625 -6.832031 4.535156 -6.90625 4.203125 -6.90625 C 3.910156 -6.90625 3.632812 -6.847656 3.375 -6.734375 C 3.113281 -6.628906 2.890625 -6.472656 2.703125 -6.265625 C 2.515625 -6.054688 2.363281 -5.804688 2.25 -5.515625 C 2.144531 -5.222656 2.09375 -4.882812 2.09375 -4.5 L 2.09375 0 L 1.015625 0 L 1.015625 -7.78125 L 1.984375 -7.78125 L 2.09375 -6.65625 C 2.582031 -7.476562 3.285156 -7.890625 4.203125 -7.890625 C 4.503906 -7.890625 4.859375 -7.832031 5.265625 -7.71875 Z M 5.265625 -6.6875 "/></g></g></g><g fill="#000000" fill-opacity="1"><g transform="translate(300.125039, 14.224915)"><g/></g></g><g fill="#000000" fill-opacity="1"><g transform="translate(305.104143, 14.224915)"><g><path d="M 0.75 -10.5 C 0.75 -10.726562 0.828125 -10.921875 0.984375 -11.078125 C 1.140625 -11.234375 1.332031 -11.3125 1.5625 -11.3125 C 1.789062 -11.3125 1.976562 -11.234375 2.125 -11.078125 C 2.28125 -10.921875 2.359375 -10.726562 2.359375 -10.5 C 2.359375 -10.269531 2.28125 -10.078125 2.125 -9.921875 C 1.976562 -9.773438 1.789062 -9.703125 1.5625 -9.703125 C 1.332031 -9.703125 1.140625 -9.773438 0.984375 -9.921875 C 0.828125 -10.078125 0.75 -10.269531 0.75 -10.5 Z M 1.015625 0 L 1.015625 -7.78125 L 2.09375 -7.78125 L 2.09375 0 Z M 1.015625 0 "/></g></g></g><g fill="#000000" fill-opacity="1"><g transform="translate(308.216098, 14.224915)"><g><path d="M 9.453125 -5.359375 C 9.453125 -5.890625 9.316406 -6.28125 9.046875 -6.53125 C 8.785156 -6.78125 8.476562 -6.90625 8.125 -6.90625 C 7.90625 -6.90625 7.6875 -6.859375 7.46875 -6.765625 C 7.257812 -6.679688 7.066406 -6.554688 6.890625 -6.390625 C 6.722656 -6.222656 6.582031 -6.019531 6.46875 -5.78125 C 6.363281 -5.550781 6.3125 -5.285156 6.3125 -4.984375 L 6.3125 0 L 5.234375 0 L 5.234375 -5.359375 C 5.234375 -5.890625 5.097656 -6.28125 4.828125 -6.53125 C 4.566406 -6.78125 4.257812 -6.90625 3.90625 -6.90625 C 3.6875 -6.90625 3.46875 -6.859375 3.25 -6.765625 C 3.039062 -6.679688 2.847656 -6.554688 2.671875 -6.390625 C 2.503906 -6.222656 2.363281 -6.019531 2.25 -5.78125 C 2.144531 -5.550781 2.09375 -5.285156 2.09375 -4.984375 L 2.09375 0 L 1.015625 0 L 1.015625 -7.78125 L 1.96875 -7.78125 L 2.09375 -6.765625 C 2.34375 -7.160156 2.644531 -7.445312 3 -7.625 C 3.363281 -7.800781 3.726562 -7.890625 4.09375 -7.890625 C 4.488281 -7.890625 4.847656 -7.785156 5.171875 -7.578125 C 5.503906 -7.378906 5.738281 -7.070312 5.875 -6.65625 C 6.15625 -7.082031 6.5 -7.394531 6.90625 -7.59375 C 7.320312 -7.789062 7.75 -7.890625 8.1875 -7.890625 C 8.488281 -7.890625 8.78125 -7.835938 9.0625 -7.734375 C 9.351562 -7.628906 9.601562 -7.46875 9.8125 -7.25 C 10.03125 -7.039062 10.203125 -6.773438 10.328125 -6.453125 C 10.460938 -6.140625 10.53125 -5.773438 10.53125 -5.359375 L 10.53125 0 L 9.453125 0 Z M 9.453125 -5.359375 "/></g></g></g><g fill="#000000" fill-opacity="1"><g transform="translate(319.761417, 14.224915)"><g><path d="M 2.09375 3.421875 L 1.015625 3.421875 L 1.015625 -7.78125 L 1.984375 -7.78125 L 2.09375 -6.859375 C 2.394531 -7.222656 2.726562 -7.484375 3.09375 -7.640625 C 3.46875 -7.804688 3.84375 -7.890625 4.21875 -7.890625 C 4.550781 -7.890625 4.875 -7.820312 5.1875 -7.6875 C 5.507812 -7.5625 5.785156 -7.367188 6.015625 -7.109375 C 6.253906 -6.859375 6.445312 -6.550781 6.59375 -6.1875 C 6.738281 -5.832031 6.8125 -5.421875 6.8125 -4.953125 L 6.8125 -2.828125 C 6.8125 -2.359375 6.738281 -1.941406 6.59375 -1.578125 C 6.445312 -1.222656 6.253906 -0.914062 6.015625 -0.65625 C 5.785156 -0.40625 5.507812 -0.210938 5.1875 -0.078125 C 4.875 0.046875 4.550781 0.109375 4.21875 0.109375 C 3.84375 0.109375 3.46875 0.03125 3.09375 -0.125 C 2.726562 -0.289062 2.394531 -0.554688 2.09375 -0.921875 Z M 2.09375 -2.96875 C 2.09375 -2.625 2.144531 -2.320312 2.25 -2.0625 C 2.363281 -1.800781 2.507812 -1.582031 2.6875 -1.40625 C 2.863281 -1.226562 3.066406 -1.09375 3.296875 -1 C 3.523438 -0.914062 3.753906 -0.875 3.984375 -0.875 C 4.203125 -0.875 4.414062 -0.910156 4.625 -0.984375 C 4.84375 -1.066406 5.03125 -1.191406 5.1875 -1.359375 C 5.351562 -1.523438 5.484375 -1.726562 5.578125 -1.96875 C 5.679688 -2.207031 5.734375 -2.492188 5.734375 -2.828125 L 5.734375 -4.953125 C 5.734375 -5.285156 5.679688 -5.570312 5.578125 -5.8125 C 5.484375 -6.050781 5.351562 -6.253906 5.1875 -6.421875 C 5.03125 -6.585938 4.84375 -6.707031 4.625 -6.78125 C 4.414062 -6.863281 4.203125 -6.90625 3.984375 -6.90625 C 3.753906 -6.90625 3.523438 -6.859375 3.296875 -6.765625 C 3.066406 -6.679688 2.863281 -6.550781 2.6875 -6.375 C 2.507812 -6.195312 2.363281 -5.976562 2.25 -5.71875 C 2.144531 -5.457031 2.09375 -5.15625 2.09375 -4.8125 Z M 2.09375 -2.96875 "/></g></g></g><g fill="#000000" fill-opacity="1"><g transform="translate(327.432388, 14.224915)"><g><path d="M 0.78125 -4.828125 C 0.78125 -5.335938 0.867188 -5.78125 1.046875 -6.15625 C 1.234375 -6.539062 1.472656 -6.859375 1.765625 -7.109375 C 2.066406 -7.367188 2.410156 -7.5625 2.796875 -7.6875 C 3.179688 -7.820312 3.578125 -7.890625 3.984375 -7.890625 C 4.390625 -7.890625 4.785156 -7.820312 5.171875 -7.6875 C 5.554688 -7.5625 5.894531 -7.367188 6.1875 -7.109375 C 6.488281 -6.859375 6.734375 -6.539062 6.921875 -6.15625 C 7.109375 -5.78125 7.203125 -5.335938 7.203125 -4.828125 L 7.203125 -2.953125 C 7.203125 -2.441406 7.109375 -1.992188 6.921875 -1.609375 C 6.734375 -1.234375 6.488281 -0.914062 6.1875 -0.65625 C 5.894531 -0.394531 5.554688 -0.203125 5.171875 -0.078125 C 4.785156 0.046875 4.390625 0.109375 3.984375 0.109375 C 3.578125 0.109375 3.179688 0.046875 2.796875 -0.078125 C 2.410156 -0.203125 2.066406 -0.394531 1.765625 -0.65625 C 1.472656 -0.914062 1.234375 -1.234375 1.046875 -1.609375 C 0.867188 -1.992188 0.78125 -2.441406 0.78125 -2.953125 Z M 6.109375 -4.828125 C 6.109375 -5.171875 6.046875 -5.472656 5.921875 -5.734375 C 5.804688 -5.992188 5.648438 -6.207031 5.453125 -6.375 C 5.253906 -6.550781 5.023438 -6.679688 4.765625 -6.765625 C 4.515625 -6.859375 4.253906 -6.90625 3.984375 -6.90625 C 3.722656 -6.90625 3.460938 -6.859375 3.203125 -6.765625 C 2.953125 -6.679688 2.722656 -6.550781 2.515625 -6.375 C 2.316406 -6.207031 2.160156 -5.992188 2.046875 -5.734375 C 1.929688 -5.472656 1.875 -5.171875 1.875 -4.828125 L 1.875 -2.953125 C 1.875 -2.597656 1.929688 -2.289062 2.046875 -2.03125 C 2.160156 -1.78125 2.316406 -1.566406 2.515625 -1.390625 C 2.722656 -1.222656 2.953125 -1.09375 3.203125 -1 C 3.460938 -0.914062 3.722656 -0.875 3.984375 -0.875 C 4.253906 -0.875 4.515625 -0.914062 4.765625 -1 C 5.023438 -1.09375 5.253906 -1.222656 5.453125 -1.390625 C 5.648438 -1.566406 5.804688 -1.78125 5.921875 -2.03125 C 6.046875 -2.289062 6.109375 -2.597656 6.109375 -2.953125 Z M 6.109375 -4.828125 "/></g></g></g><g fill="#000000" fill-opacity="1"><g transform="translate(335.41456, 14.224915)"><g><path d="M 5.265625 -6.6875 C 4.890625 -6.832031 4.535156 -6.90625 4.203125 -6.90625 C 3.910156 -6.90625 3.632812 -6.847656 3.375 -6.734375 C 3.113281 -6.628906 2.890625 -6.472656 2.703125 -6.265625 C 2.515625 -6.054688 2.363281 -5.804688 2.25 -5.515625 C 2.144531 -5.222656 2.09375 -4.882812 2.09375 -4.5 L 2.09375 0 L 1.015625 0 L 1.015625 -7.78125 L 1.984375 -7.78125 L 2.09375 -6.65625 C 2.582031 -7.476562 3.285156 -7.890625 4.203125 -7.890625 C 4.503906 -7.890625 4.859375 -7.832031 5.265625 -7.71875 Z M 5.265625 -6.6875 "/></g></g></g><g fill="#000000" fill-opacity="1"><g transform="translate(340.984935, 14.224915)"><g><path d="M 4.4375 -0.140625 C 4.039062 0.0234375 3.648438 0.109375 3.265625 0.109375 C 3.023438 0.109375 2.796875 0.0703125 2.578125 0 C 2.359375 -0.0820312 2.171875 -0.207031 2.015625 -0.375 C 1.859375 -0.539062 1.726562 -0.757812 1.625 -1.03125 C 1.53125 -1.300781 1.484375 -1.625 1.484375 -2 L 1.484375 -6.796875 L 0.3125 -6.796875 L 0.3125 -7.78125 L 1.484375 -7.78125 L 1.484375 -9.796875 L 2.5625 -10.109375 L 2.5625 -7.78125 L 4.4375 -7.78125 L 4.4375 -6.796875 L 2.5625 -6.796875 L 2.5625 -2 C 2.5625 -1.59375 2.644531 -1.300781 2.8125 -1.125 C 2.976562 -0.957031 3.191406 -0.875 3.453125 -0.875 C 3.722656 -0.875 4.050781 -0.957031 4.4375 -1.125 Z M 4.4375 -0.140625 "/></g></g></g><g fill="#000000" fill-opacity="1"><g transform="translate(345.730653, 14.224915)"><g><path d="M 5.421875 -6.609375 C 5.222656 -6.660156 4.9375 -6.722656 4.5625 -6.796875 C 4.195312 -6.867188 3.820312 -6.90625 3.4375 -6.90625 C 3.21875 -6.90625 3.003906 -6.890625 2.796875 -6.859375 C 2.597656 -6.828125 2.421875 -6.769531 2.265625 -6.6875 C 2.109375 -6.601562 1.984375 -6.488281 1.890625 -6.34375 C 1.796875 -6.207031 1.75 -6.039062 1.75 -5.84375 C 1.75 -5.625 1.789062 -5.4375 1.875 -5.28125 C 1.957031 -5.132812 2.078125 -5.007812 2.234375 -4.90625 C 2.390625 -4.800781 2.570312 -4.710938 2.78125 -4.640625 C 2.988281 -4.566406 3.207031 -4.5 3.4375 -4.4375 C 3.71875 -4.363281 4.003906 -4.273438 4.296875 -4.171875 C 4.585938 -4.066406 4.847656 -3.925781 5.078125 -3.75 C 5.316406 -3.582031 5.507812 -3.363281 5.65625 -3.09375 C 5.800781 -2.820312 5.875 -2.476562 5.875 -2.0625 C 5.875 -1.675781 5.800781 -1.34375 5.65625 -1.0625 C 5.519531 -0.789062 5.320312 -0.566406 5.0625 -0.390625 C 4.8125 -0.210938 4.515625 -0.0820312 4.171875 0 C 3.835938 0.0703125 3.476562 0.109375 3.09375 0.109375 C 2.65625 0.109375 2.207031 0.0625 1.75 -0.03125 C 1.300781 -0.125 0.859375 -0.253906 0.421875 -0.421875 L 0.609375 -1.40625 C 0.753906 -1.34375 0.921875 -1.28125 1.109375 -1.21875 C 1.304688 -1.15625 1.515625 -1.097656 1.734375 -1.046875 C 1.953125 -0.992188 2.179688 -0.953125 2.421875 -0.921875 C 2.660156 -0.890625 2.894531 -0.875 3.125 -0.875 C 3.351562 -0.875 3.566406 -0.890625 3.765625 -0.921875 C 3.972656 -0.960938 4.148438 -1.03125 4.296875 -1.125 C 4.453125 -1.21875 4.570312 -1.34375 4.65625 -1.5 C 4.75 -1.65625 4.796875 -1.84375 4.796875 -2.0625 C 4.796875 -2.269531 4.75 -2.441406 4.65625 -2.578125 C 4.5625 -2.722656 4.4375 -2.847656 4.28125 -2.953125 C 4.132812 -3.066406 3.960938 -3.160156 3.765625 -3.234375 C 3.566406 -3.304688 3.363281 -3.375 3.15625 -3.4375 C 2.863281 -3.519531 2.570312 -3.613281 2.28125 -3.71875 C 1.988281 -3.820312 1.71875 -3.957031 1.46875 -4.125 C 1.226562 -4.300781 1.03125 -4.523438 0.875 -4.796875 C 0.726562 -5.066406 0.65625 -5.414062 0.65625 -5.84375 C 0.65625 -6.226562 0.734375 -6.550781 0.890625 -6.8125 C 1.054688 -7.082031 1.269531 -7.296875 1.53125 -7.453125 C 1.789062 -7.609375 2.082031 -7.71875 2.40625 -7.78125 C 2.738281 -7.851562 3.082031 -7.890625 3.4375 -7.890625 C 3.820312 -7.890625 4.203125 -7.859375 4.578125 -7.796875 C 4.960938 -7.734375 5.304688 -7.660156 5.609375 -7.578125 Z M 5.421875 -6.609375 "/></g></g></g></g></g><g transform="matrix(1, 0, 0, 1, 174, 66)"><g clip-path="url(#65070be50d)"><g fill="#0081cc" fill-opacity="1"><g transform="translate(2.121678, 74.772523)"><g><path d="M 13.09375 -44.578125 L 13.09375 -0.484375 L 12.6875 -0.078125 L 0.28125 -0.078125 L -0.125 -0.484375 L -0.125 -44.578125 Z M 27.671875 -0.078125 L 27.3125 -0.5625 L 27.3125 -27.84375 C 26.90625 -31.050781 25.160156 -32.789062 22.078125 -33.0625 C 19.941406 -33.0625 18.050781 -32.304688 16.40625 -30.796875 L 15.84375 -31.4375 L 15.84375 -42.34375 L 16.203125 -43.359375 C 17.472656 -44.222656 19.554688 -44.65625 22.453125 -44.65625 C 27.390625 -44.65625 31.519531 -43.15625 34.84375 -40.15625 C 38.4375 -43.15625 42.410156 -44.65625 46.765625 -44.65625 L 49.03125 -44.65625 C 54.488281 -44.65625 59.050781 -42.726562 62.71875 -38.875 C 66.394531 -35.03125 68.273438 -30.609375 68.359375 -25.609375 L 68.359375 -0.609375 L 68.109375 -0.078125 L 55.46875 -0.078125 L 55.109375 -0.5625 L 55.109375 -27.03125 C 54.535156 -30.695312 52.007812 -32.867188 47.53125 -33.546875 C 43.257812 -33.140625 40.976562 -30.96875 40.6875 -27.03125 L 40.6875 -0.5625 L 40.3125 -0.078125 Z M 27.671875 -0.078125 "/></g></g></g></g></g><g transform="matrix(1, 0, 0, 1, 247, 66)"><g clip-path="url(#438479d61e)"><g fill="#004aad" fill-opacity="1"><g transform="translate(0.97622, 74.772523)"><g><path d="M 22.078125 -44.40625 C 24.378906 -44.457031 26.175781 -44.363281 27.46875 -44.125 C 36.21875 -41.9375 40.71875 -37.113281 40.96875 -29.65625 L 40.96875 -0.609375 L 40.203125 0.078125 L 28.328125 0.078125 L 27.75 -0.484375 L 27.75 -28.609375 C 27.40625 -31.335938 25.515625 -32.847656 22.078125 -33.140625 Z M 25.25 -19.65625 L 24.390625 -18.84375 C 22.929688 -19 21.429688 -18.972656 19.890625 -18.765625 C 17.160156 -18.492188 14.945312 -17.835938 13.25 -16.796875 C 11.550781 -15.753906 10.703125 -14.273438 10.703125 -12.359375 C 10.703125 -10.984375 11.617188 -9.914062 13.453125 -9.15625 C 15.097656 -8.457031 17.007812 -8.085938 19.1875 -8.046875 C 21.363281 -8.003906 23.15625 -8.1875 24.5625 -8.59375 L 25.25 -7.9375 L 25.25 -0.125 C 24.320312 0.175781 21.96875 0.367188 18.1875 0.453125 C 15.519531 0.421875 13.097656 0.179688 10.921875 -0.265625 C 8.742188 -0.710938 6.695312 -1.582031 4.78125 -2.875 C 3.96875 -3.382812 3.296875 -3.957031 2.765625 -4.59375 C 2.242188 -5.226562 1.832031 -5.816406 1.53125 -6.359375 C 1.238281 -6.898438 1.007812 -7.414062 0.84375 -7.90625 C 0.445312 -9.113281 0.25 -10.460938 0.25 -11.953125 C 0.25 -16.867188 1.914062 -20.609375 5.25 -23.171875 C 8.582031 -25.742188 13.054688 -27.164062 18.671875 -27.4375 C 20.972656 -27.675781 22.945312 -27.703125 24.59375 -27.515625 L 25.25 -26.90625 Z M 19.78125 -33.0625 C 16.257812 -32.707031 14.429688 -31.628906 14.296875 -29.828125 L 13.296875 -29.34375 L 3.484375 -29.375 L 2.75 -30.109375 C 2.726562 -36.773438 6.441406 -41.328125 13.890625 -43.765625 C 15.023438 -44.191406 16.988281 -44.378906 19.78125 -44.328125 Z M 19.78125 -33.0625 "/></g></g></g></g></g><g transform="matrix(1, 0, 0, 1, 295, 66)"><g clip-path="url(#09bb586fa3)"><g clip-path="url(#40c9d6638c)"><g fill="#000000" fill-opacity="1"><g transform="translate(0.819442, 74.772523)"><g><path d="M 13.203125 -44.484375 L 13.203125 -0.40625 L 12.796875 0 L 0.40625 0 L 0 -0.40625 L 0 -44.484375 Z M 15.96875 -42.265625 L 16.375 -43.28125 C 17.695312 -44.144531 19.894531 -44.578125 22.96875 -44.578125 C 28.476562 -44.578125 33.035156 -42.921875 36.640625 -39.609375 C 40.253906 -36.296875 42.101562 -31.601562 42.1875 -25.53125 L 42.1875 -0.5625 L 41.9375 -0.046875 L 29.375 0 L 28.96875 -0.484375 L 28.96875 -27.75 C 28.539062 -30.96875 26.40625 -32.710938 22.5625 -32.984375 C 20.320312 -32.984375 18.328125 -32.226562 16.578125 -30.71875 L 15.96875 -31.359375 Z M 15.96875 -42.265625 "/></g></g></g></g></g></g></svg>